<?xml version="1.0" encoding="utf-8"?><svg xmlns="http://www.w3.org/2000/svg" xmlns:xlink="http://www.w3.org/1999/xlink"><symbol viewBox="0 0 30 24" id="RER" xmlns="http://www.w3.org/2000/svg"><path d="M26.439 12.577c.45.256.823.536 1.116.841.294.305.689.848 1.187 1.627L30.003 17h-2.494l-1.507-2.181c-.535-.779-.902-1.27-1.099-1.473a1.606 1.606 0 0 0-.627-.417c-.221-.075-.57-.113-1.049-.113h-.423V17h-2.085V6.979h4.388c1.104 0 1.906.09 2.406.27.5.18.9.5 1.201.96.3.46.451.987.451 1.579 0 .752-.228 1.373-.684 1.863-.455.49-1.136.799-2.042.926zm.299-3.476c-.186-.207-.447-.338-.785-.393-.169-.023-.677-.034-1.522-.034h-1.627v2.543h1.543c1 0 1.624-.041 1.873-.123.249-.082.444-.223.585-.424.141-.201.211-.451.211-.752 0-.337-.093-.609-.278-.817zM14.92 1a11.294 11.294 0 0 0-9.419 5H4.306c2.123-3.584 6.076-6 10.614-6 4.539 0 8.492 2.416 10.614 6h-1.195a11.294 11.294 0 0 0-9.419-5zM6.806 7.249c.5.18.9.5 1.201.96.3.46.45.987.45 1.579 0 .752-.227 1.373-.683 1.863-.455.49-1.136.799-2.043.926a4.89 4.89 0 0 1 1.117.841c.293.305.689.848 1.187 1.627L9.296 17H6.802l-1.507-2.181c-.536-.779-.902-1.27-1.099-1.473a1.62 1.62 0 0 0-.627-.417c-.221-.075-.571-.113-1.05-.113h-.422V17H.012V6.979H4.4c1.103 0 1.905.09 2.406.27zM2.097 8.674v2.543h1.542c1 0 1.625-.041 1.874-.123.249-.082.444-.223.585-.424.14-.201.211-.451.211-.752 0-.337-.093-.609-.278-.817-.186-.207-.448-.338-.786-.393-.169-.023-.676-.034-1.521-.034H2.097zm16.608 6.638V17h-7.854V6.979h7.657v1.695h-5.572v2.222h5.185v1.688h-5.185v2.728h5.769zM14.92 23a11.32 11.32 0 0 0 8.675-4h1.276a12.325 12.325 0 0 1-9.951 5 12.328 12.328 0 0 1-9.951-5h1.276c2.063 2.443 5.183 4 8.675 4z" class="aacls-1"/></symbol><symbol viewBox="0 0 36.956 24" id="SNCF" xmlns="http://www.w3.org/2000/svg"><path d="M18.398 1a11.294 11.294 0 0 0-9.419 5H7.784c2.123-3.584 6.076-6 10.614-6 4.539 0 8.492 2.416 10.614 6h-1.195a11.294 11.294 0 0 0-9.419-5zm0 22a11.32 11.32 0 0 0 8.675-4h1.276a12.325 12.325 0 0 1-9.951 5 12.328 12.328 0 0 1-9.951-5h1.276c2.063 2.443 5.183 4 8.675 4zM0 13.741l1.969-.191c.119.661.359 1.146.721 1.456s.851.465 1.466.465c.652 0 1.143-.138 1.473-.414.331-.275.496-.598.496-.967a.913.913 0 0 0-.208-.605c-.139-.166-.382-.311-.728-.434-.237-.082-.777-.227-1.62-.437-1.084-.269-1.846-.6-2.283-.991-.615-.552-.923-1.224-.923-2.017 0-.511.145-.988.434-1.432.29-.445.707-.783 1.251-1.016S3.25 6.81 4.02 6.81c1.258 0 2.205.275 2.84.827s.97 1.287 1.001 2.208l-2.023.089c-.087-.515-.273-.885-.557-1.111-.285-.225-.712-.338-1.282-.338-.588 0-1.048.121-1.381.362a.73.73 0 0 0-.321.622c0 .237.1.439.301.608.255.214.875.438 1.859.67s1.712.473 2.184.722c.472.248.841.588 1.107 1.018.267.432.4.962.4 1.596 0 .574-.16 1.112-.479 1.613s-.769.874-1.353 1.118c-.583.243-1.31.365-2.181.365-1.267 0-2.24-.293-2.919-.879C.538 15.716.132 14.862 0 13.741zM9.871 17.002V6.981h1.969l4.102 6.692V6.981h1.88v10.021h-2.03l-4.04-6.535v6.535H9.871zM26.374 13.317l1.961.622c-.301 1.094-.801 1.906-1.5 2.438-.699.53-1.588.796-2.662.796-1.332 0-2.426-.454-3.281-1.364-.857-.908-1.285-2.151-1.285-3.728 0-1.668.43-2.963 1.291-3.887.861-.922 1.994-1.384 3.398-1.384 1.225 0 2.221.362 2.986 1.087.457.429.799 1.044 1.025 1.846l-2.002.479c-.119-.52-.367-.93-.742-1.23-.377-.302-.832-.452-1.371-.452-.742 0-1.346.267-1.809.8-.461.533-.693 1.396-.693 2.591 0 1.266.229 2.168.684 2.707.457.538 1.049.807 1.777.807.539 0 1-.171 1.389-.513.386-.343.664-.881.834-1.615zM30.085 17.002V6.981h6.87v1.695h-4.847v2.372h4.184v1.695h-4.184v4.258h-2.023z"/></symbol><symbol viewBox="0 0 80 80" id="a-pied" xmlns="http://www.w3.org/2000/svg"><path d="M48.2 48.6c-1.2-2.4-5.3-4.9-7.7-6.9v-.4h-.1V28.2c-2.4-1.9-4.6-2.6-7-2.6-1.6 0-7.5 6.7-7.5 7.5v10.2c.4.8.4 1.6 1.5 1.6.8 0 1.6-.8 2-1.6V35c1.6-1.6 3.2-3.1 5.2-4.4v12.7c3.2 2.8 6.8 4.4 9.6 7.5.8.8 6.4 10 8.8 14.2 2 0 2-1.6 2-2.4 0-.7-3.6-9.3-6.8-14z"/><path d="M25 62.7c0 .8-.1 1.5 1.1 1.5.8 0 2-.8 2.4-1.1 2.6-4.3 6.9-12.2 8.1-15l-2.8-2.3C32 48.6 25 60.6 25 62.7zM42.1 34.3c.1.3.2.6.4.9 2.3 1.8 5.3 4.3 6.5 4.3.8 0 2-.3 2-1.5 0-3.5-6-5.8-8.9-8.6v4.9zM39 24c2.8 0 4.4-2.8 4.4-4.7 0-2-1.6-4.4-4.4-4.4-3.2 0-4.4 2.4-4.4 4.4 0 2.4 2 4.7 4.4 4.7z"/></symbol><symbol viewBox="0 0 600 850" id="accessibilite" xmlns="http://www.w3.org/2000/svg"><circle cx="182.159" cy="146.803" r="67.682"/><path d="M569.573 602.1l-52.219 24.502-88.367-201.439H223.933l-1.607-35.95h145.005v-60.251H219.715l-3.816-91.983h-60.251l10.444 248.435h223.532l97.404 222.125 108.252-50.811z"/><path d="M220.117 702.518c-88.734-.449-160.303-72.747-159.854-161.48.275-54.258 27.916-104.712 73.494-134.15l-6.025-65.272C17.094 393.053-30.896 524.442 20.543 635.08c51.438 110.638 182.828 158.628 293.466 107.19a220.927 220.927 0 0 0 100.719-94.379l-48.602-37.355c-26.678 56.412-83.606 92.277-146.009 91.982z"/></symbol><symbol viewBox="0 0 14 14" id="arrow-bottom" xmlns="http://www.w3.org/2000/svg"><path d="M1 3l6 6 6-6 1 1-7 7-7-7 1-1z"/></symbol><symbol viewBox="0 0 14 14" id="arrow-left" xmlns="http://www.w3.org/2000/svg"><path d="M11 13L5 7l6-6-1-1-7 7 7 7 1-1z"/></symbol><symbol viewBox="0 0 14 14" id="arrow-right" xmlns="http://www.w3.org/2000/svg"><path d="M3 1l6 6-6 6 1 1 7-7-7-7-1 1z"/></symbol><symbol viewBox="0 0 14 14" id="arrow-top" xmlns="http://www.w3.org/2000/svg"><path d="M1 11l6-6 6 6 1-1-7-7-7 7 1 1z"/></symbol><symbol viewBox="0 0 80 80" id="audio" xmlns="http://www.w3.org/2000/svg"><path d="M40 16c-9 .1-19.7 7.4-20.5 20.2v1.7c-1.3 2.6-3.6.4-4.5 3.8V55c0 .9 3 2.6 3.9 3h3.2V36.1c0-8 8.3-16.8 17.9-17.2 9.7.4 17.9 9.2 17.9 17.2V58h3.2c.9-.4 3.9-2.2 3.9-3V41.7c-.9-3.4-3.2-1.3-4.5-3.8v-1.7C59.7 23.3 49 16.1 40 16z"/></symbol><symbol viewBox="0 0 80 80" id="autour-de-paris" xmlns="http://www.w3.org/2000/svg"><path d="M50.2 40.4c.1.6.2 1.1.2 1.7 14.4 1.7 24.8 6.7 24.8 12.6 0 7.3-15.7 13.2-35.2 13.2S4.8 62 4.8 54.7c0-5.9 10.4-10.9 24.8-12.6 0-.6.1-1.2.2-1.7C12.9 42.1.5 47.8.5 54.7c0 8.2 17.7 14.8 39.5 14.8s39.5-6.6 39.5-14.8c0-6.9-12.4-12.6-29.3-14.3z"/><path d="M30.3 55.5h4.6l.4-.4c.6-6.4 9.4-6.1 9.8 0l.4.4h4.6l.5-.6c-.7-2.6-4-6.8-3.6-9.2l-.4-.4h-1.1l.3-.3c-.7-1.5-1.3-3.8-1.9-6.8l.2-.5H36.4l.2.5c-.5 3-1.2 5.3-1.9 6.8l.6.3h-1.5l-.4.4c.4 2.3-2.9 6.6-3.6 9.2l.5.6zm7.4-16.7h5.1c.3 2 .7 3.9 1.2 5.5l-.6.3h-6.1l-.9-.3c.6-1.6 1-3.5 1.3-5.5zm-2.8 7.4l.5-.3h9.5l.8.3c.1 2.6 2.3 5.6 3.4 8.1h-2.5c-1.1-7.2-11.2-7-12.4 0h-2.6c.9-2.4 3.2-5.5 3.3-8.1zM40.1 20.2L42 37.7h1.5s-2.9-19.4-2.2-23.8c.1-.2.2-.4.2-.7 0-.4-.2-.8-.5-1.1l-.8-1.6-.8 1.6c-.3.2-.5.7-.5 1.1 0 .2.1.5.2.7.7 4.5-2.2 23.8-2.2 23.8h1.5l1.7-17.5z"/></symbol><symbol viewBox="0 0 80 80" id="best" xmlns="http://www.w3.org/2000/svg"><path d="M40.2 42.2c-7.2 0-13-5.8-13-13s5.8-13 13-13 13 5.8 13 13-5.8 13-13 13zm0-24.3c-6.3 0-11.4 5.1-11.4 11.4s5.1 11.4 11.4 11.4 11.4-5.1 11.4-11.4-5.1-11.4-11.4-11.4z"/><path d="M40.4 49.1c-.9 0-1.9-.5-2.9-.9-.6-.3-1.2-.5-1.5-.6-.3-.1-1-.1-1.6-.2-1.1-.1-2.3-.1-3.1-.5s-1.5-1.4-2.1-2.2c-.3-.5-.8-1-1-1.3-.3-.3-.9-.6-1.4-.9-.9-.6-2-1.2-2.5-1.9s-.7-1.9-.9-3c-.1-.6-.3-1.3-.4-1.6-.2-.3-.5-.9-.8-1.5-.6-.9-1.2-2-1.3-2.8-.1-.9.3-2 .6-3.1.2-.6.5-1.2.5-1.6.1-.3 0-1-.1-1.6-.1-1.1-.2-2.3.2-3.1.3-.8 1.1-1.6 2-2.4.4-.4.9-.9 1.1-1.2.3-.3.5-.9.7-1.5.4-1 .9-2.1 1.5-2.7.7-.6 1.8-.9 2.8-1.2.6-.2 1.2-.3 1.5-.5.3-.2.9-.6 1.3-.9.9-.9 1.8-1.6 2.7-1.8.9-.2 2 0 3.1.3.6.1 1.3.3 1.6.3.3 0 1-.1 1.6-.3 1.1-.3 2.2-.4 3.1-.3.9.2 1.7.9 2.7 1.6.5.4 1 .8 1.4.9.3.2.9.3 1.5.5 1.1.3 2.2.7 2.8 1.2.7.6 1.1 1.6 1.5 2.7.3.6.5 1.2.7 1.5.3.3.7.8 1.1 1.2.8.8 1.6 1.6 2 2.4.3.8.3 2 .2 3.1-.1.6-.1 1.3-.1 1.6.1.3.3 1 .4 1.6.3 1.1.7 2.2.6 3.1-.1.9-.7 1.9-1.3 2.8-.3.5-.7 1.1-.8 1.5-.2.3-.3 1-.3 1.6-.2 1.1-.4 2.3-.9 3-.5.7-1.5 1.3-2.5 1.9-.5.3-1.1.7-1.4.9-.3.3-.7.8-1 1.3-.7.9-1.4 1.8-2.1 2.2s-2 .4-3.1.5c-.6 0-1.3.1-1.6.2-.3.1-.9.3-1.5.6-1 .6-2.1 1.1-3 1.1zm-3.9-37.5h-.3c-.5.1-1.4.8-2 1.4-.6.4-1.1.9-1.6 1.1-.5.3-1.1.4-1.9.7-.9.3-1.9.6-2.2.9-.3.3-.8 1.3-1.1 2.1-.3.7-.6 1.3-.9 1.7-.3.4-.8.9-1.4 1.5-.6.6-1.4 1.4-1.5 1.8-.2.4-.1 1.5 0 2.4.1.8.1 1.5 0 2s-.3 1.2-.5 1.9c-.3.9-.6 1.9-.5 2.3.1.5.6 1.4 1.1 2.1.4.6.8 1.2.9 1.7.2.5.3 1.2.4 1.9.2.9.3 1.9.6 2.3.3.4 1.2.9 2 1.4.6.3 1.2.7 1.6 1.1.4.3.9.9 1.3 1.5.5.7 1.2 1.5 1.6 1.8.4.3 1.5.3 2.4.3.8 0 1.5.1 2 .2s1.1.4 1.8.8c.8.3 1.8.9 2.2.9.5 0 1.5-.4 2.3-.9.7-.3 1.3-.6 1.8-.8s1.2-.2 2-.2c.9 0 2-.1 2.4-.3.4-.3 1.1-1.1 1.6-1.8.4-.6.9-1.1 1.3-1.5s1-.7 1.6-1.1c.8-.4 1.7-1 2-1.4.3-.4.5-1.5.6-2.3.1-.7.3-1.4.4-1.9.2-.5.6-1.1.9-1.7.4-.8 1-1.6 1.1-2.1s-.3-1.5-.5-2.3c-.3-.7-.4-1.4-.5-1.9-.1-.5 0-1.2 0-2 .1-.9.2-2 0-2.4-.2-.4-.9-1.2-1.5-1.8-.5-.5-1-1-1.3-1.5-.3-.4-.6-1.1-.9-1.7-.3-.8-.8-1.8-1.2-2.1-.3-.3-1.5-.7-2.2-.9-.7-.2-1.4-.4-1.9-.7-.6-.3-1.2-.7-1.7-1.1-.7-.5-1.5-1.2-2-1.4-.6-.1-1.6.1-2.5.3-1.5.3-2.4.3-3.9 0-.5-.1-1.4-.3-1.9-.3z"/><path d="M31.5 70l-5.6-7.7-9.6 1.4 9.5-22.4 1.4.6-8.3 19.8 7.6-1.1 4.7 6.2 8-19.1 1.6.6z"/><path d="M48.5 70l-9.3-21.7 1.6-.6 8 19.1 4.7-6.2 7.6 1.1-8.3-19.8 1.4-.6 9.5 22.4-9.6-1.4z"/></symbol><symbol viewBox="2 5 31 20" id="bike" xmlns="http://www.w3.org/2000/svg"><path d="M11.1 7H15v1h-3.9zM27.4 13.8c-.4 0-1 0-1.4.2l-2.8-8h1.7V5H21v1h1.1l1.1 3.2-1.5 1.8c-.1 0-.2-.1-.2-.1h-7.6c.3-.5.6-.9.9-1.4 0-.1.1-.2.1-.2 0-.2-.2-.5-.5-.5-.1 0-.2 0-.3.1-.5.5-.8 1.1-1.2 1.7-.1.1-.1.3-.3.4-.1 0-.2 0-.3.1l-.3.3V11.7l-1.9 2.8c-.9-.5-1.8-.7-2.7-.7-2.5 0-5.2 1.7-5.6 5.1v1c0 .4.3 1.4.4 1.6C3.4 24 5.7 25 7.6 25c2.5 0 5.2-1.8 5.6-5.2v-.9h3.4s.2 0 .3-.1l.1-.1c2.2-2.8 4.5-5.6 6.7-8.4l1.4 4c-.1.1-.2.1-.3.2-1.9 1-2.8 3-2.9 4.5v.9s.1.6.1.8c0 .2.1.3.1.5 1 2.8 3.3 3.8 5.3 3.8 3.1 0 5.6-2.5 5.6-5.6 0-3.1-2.5-5.6-5.6-5.6zm-16.8 2.1c.7.6 1.1 1.3 1.3 2H9.2l1.4-2zm-3 8.1c-1.7 0-3.7-1-4.4-3.3 0 0-.2-.8-.2-1v-.6c.3-2.8 2.5-4.3 4.6-4.3.7 0 1.5.2 2.1.5L8 17.9h-.5c-.3.1-.4.3-.4.5s.2.4.2.4c0 .1-.2.2-.2.6 0 .2 0 .3.3.5h.2c.5 0 .6-.6.9-1h3.6v.4c.1 2.7-2 4.7-4.5 4.7zm8.6-6.1H13c-.3-.9-.8-2-1.9-2.8l2.1-3.1H21c-1.6 1.9-3.2 3.9-4.8 5.9zM27.4 24c-1.6 0-3.6-.9-4.3-3.1-.1-.3-.2-.9-.2-1.2v-.5-.5c.1-1.1 1.1-2.8 2.5-3.4l.3.9c.1.2.2.4.2.6.2.4.3.9.5 1.4.1.3.3.7.4 1 .1.4.3.6.6.6s.5-.3.5-.5c0-.3-.8-2.3-.9-2.6l-.6-1.8c.3 0 .7-.1 1-.1 2.6 0 4.6 2 4.6 4.6 0 2.6-2.1 4.6-4.6 4.6z"/><path d="M16 20.9h2v1h-2z"/></symbol><symbol viewBox="0 0 130 130" id="boat" xmlns="http://www.w3.org/2000/svg"><path d="M30.4 58.2c0 1.7 1.4 3 3 3 1.7 0 3-1.4 3-3 0-1.7-1.4-3-3-3-1.7 0-3 1.4-3 3zm-9 0c0 1.7 1.4 3 3 3s3-1.4 3-3c0-1.7-1.4-3-3-3s-3 1.4-3 3zm18 0c0 1.7 1.4 3 3 3 1.7 0 3-1.4 3-3 0-1.7-1.4-3-3-3s-3 1.4-3 3zm9 0c0 1.7 1.4 3 3 3 1.7 0 3-1.4 3-3 0-1.7-1.4-3-3-3s-3 1.4-3 3zm9.1 0c0 1.7 1.4 3 3 3 1.7 0 3-1.4 3-3 0-1.7-1.4-3-3-3-1.7 0-3 1.4-3 3zM20.6 42.4v3h7.5v-3h-7.5zm74.9 32.3c.2.5.6 1 1.2 1.1-.5-.2-1-.6-1.2-1.1zM83.3 48.4H18.1s-5 .6-5 5V65h3V54.1l2.6-2.6h63.1L92.5 62h-3.9l-2.9 3.2L7.1 65s2.6 22.6 11 22.6h80.3c13.8 0 24.6-25.3 24.6-25.3H97.4L83.3 48.4zm3.5 19.3H88l2.4-2.6h28s-10 19.8-20.7 19.6h-79c-6.8 0-7.1-16.6-7.1-16.6h75.2v-.4z"/></symbol><symbol viewBox="0 0 60 50" id="brochure" xmlns="http://www.w3.org/2000/svg"><path d="M31.8 13.8c-.7.4-1.3 1.1-1.8 1.8-.5-.7-1.1-1.4-1.8-1.8L12.8 5.4c-1.5-1-2.8-.6-2.8 1v29.4c0 1.6 1.3 2.6 2.8 3.6l15.4 8.4c.7.4 1.3.6 1.8.5.5.1 1.1-.1 1.8-.5l15.4-8.4c1.5-1 2.8-2 2.8-3.6V6.4c0-1.6-1.3-2-2.8-1l-15.4 8.4zM29 18.4v27.2c0 .6-.5.7-1 .3l-15-8.5c-.6-.4-1-1.2-1-1.8V7.7c0-.6.5-.7 1-.3l15 8.5c.6.4 1 1.2 1 1.8v.7zm3-2.5l15-8.5c.6-.4 1-.3 1 .3v27.9c0 .6-.5 1.4-1 1.8l-15 8.5c-.6.4-1 .3-1-.3v-28c0-.5.5-1.3 1-1.7zM17 3.7l11.2 6.1c.7.4 1.3.6 1.8.5.5.1 1.1-.1 1.8-.5L43 3.7V1.6L32 7.9c-1.4.8-2.6.8-4.1 0L17 1.6v2.1z"/></symbol><symbol viewBox="0 0 80 80" id="brochure2" xmlns="http://www.w3.org/2000/svg"><path d="M41.8 31.3c-.7.4-1.3 1.1-1.8 1.8-.5-.7-1.1-1.4-1.8-1.8l-15.4-8.4c-1.5-1-2.8-.6-2.8 1v24.4c0 1.5 1.3 2.6 2.8 3.6l15.4 8.4c.7.4 1.3.6 1.8.5.5.1 1.1-.1 1.8-.5l15.4-8.4c1.5-1 2.8-2 2.8-3.6V23.9c0-1.6-1.3-2-2.8-1l-15.4 8.4zM39 35.9v22.2c0 .6-.5.7-1 .3l-15-8.5c-.6-.4-1-1.2-1-1.8V25.2c0-.6.5-.7 1-.3l15 8.5c.6.4 1 1.2 1 1.8v.7zm3-2.5l15-8.5c.6-.4 1-.3 1 .3v22.9c0 .6-.5 1.4-1 1.8l-15 8.5c-.6.4-1 .3-1-.3v-23c0-.5.5-1.3 1-1.7zM27 21.2l11.2 6.1c.7.4 1.3.6 1.8.5.5.1 1.1-.1 1.8-.5L53 21.2v-2.1l-11 6.3c-1.4.8-2.6.8-4.1 0l-11-6.3v2.1z"/></symbol><symbol viewBox="0 0 130 130" id="bus" xmlns="http://www.w3.org/2000/svg"><path d="M39.7 42v11.9h3V42h-3zM59 42v11.9h3V42h-3zm28.3 20.8v3h3v-3h-3zM79.9 39v17.8H23.4V42.7c0-2.1 1.7-3.7 3.7-3.7h52.8zm3 17.8V39h8.9l14.9 11.9v6l-23.8-.1zM42.7 79c3.3 0 6.1 2.7 6.1 6 0 3.4-2.7 6.1-6.1 6.1-3.3 0-6.1-2.7-6.1-6.1 0-3.3 2.8-6 6.1-6zm0-2.8c-4.4 0-8.1 3.2-8.8 7.4h-6.8c-2.1 0-3.7-1.7-3.7-3.7V59.8h83.3v20.1c0 2.1-1.7 3.7-3.7 3.7h-3.8c-.7-4.2-4.4-7.4-8.8-7.4s-8.1 3.2-8.8 7.4h-30c-.8-4.2-4.5-7.4-8.9-7.4zm-8.8 10.4c.7 4.2 4.4 7.5 8.8 7.5s8.1-3.2 8.8-7.5h30c.7 4.2 4.4 7.5 8.8 7.5s8.1-3.2 8.8-7.5h4.1c3.6 0 6.5-2.9 6.5-6.5V49.4L93.3 36H26.8c-3.6 0-6.5 2.9-6.5 6.5v37.6c0 3.6 2.9 6.5 6.5 6.5h7.1zM90.3 79c3.3 0 6.1 2.7 6.1 6 0 3.4-2.7 6.1-6.1 6.1-3.3 0-6.1-2.7-6.1-6.1 0-3.3 2.8-6 6.1-6z"/></symbol><symbol viewBox="0 0 60 50" id="bus2" xmlns="http://www.w3.org/2000/svg"><path d="M13 9.5h2v8h-2zm13 0h2v8h-2zm19 14h2v2h-2z"/><path d="M49 5.5H4.4C2 5.5 0 7.4 0 9.9v25.3c0 2.4 2 4.3 4.4 4.3h4.7c.5 2.8 2.9 5 5.9 5s5.4-2.2 5.9-5h20.2c.5 2.8 2.9 5 5.9 5s5.4-2.2 5.9-5h2.7c2.4 0 4.4-1.9 4.4-4.3V14.5l-11-9zM2 10c0-1.4 1.1-2.5 2.5-2.5H40v12H2V10zm13 32.6c-2.3 0-4.1-1.8-4.1-4.1s1.8-4.1 4.1-4.1 4.1 1.8 4.1 4.1-1.8 4.1-4.1 4.1zm32 0c-2.3 0-4.1-1.8-4.1-4.1s1.8-4.1 4.1-4.1 4.1 1.8 4.1 4.1-1.8 4.1-4.1 4.1zM58 35c0 1.4-1.1 2.5-2.5 2.5h-2.6c-.5-2.8-2.9-5-5.9-5s-5.4 2.2-5.9 5H20.9c-.5-2.8-2.9-5-5.9-5s-5.4 2.2-5.9 5H4.5C3.1 37.5 2 36.4 2 35V21.5h56V35zm0-15.5H42v-12h6l10 8v4z"/></symbol><symbol viewBox="0 0 80 80" id="cabaret" xmlns="http://www.w3.org/2000/svg"><path d="M14.1 61.6L80 29.7l-.7-1.4-65.9 32c-1-1-2.5-1.3-3.8-.7-1.5.7-2 2.5-1.2 4s2.7 2.1 4.2 1.3c1.3-.6 1.9-2 1.5-3.3zM55.8 59.9s-10-3.4-10-5.8v-2.6c0-2.4 10-5.8 10-5.8 5.6-.1 5.2 14.2 0 14.2zM55 47.1s-7.7 3.1-7.7 5.1v1.1c0 2 7.7 5.1 7.7 5.1 4.3.3 5.5-11.3 0-11.3z"/><path d="M34.1 59.9s10-3.4 10-5.8v-2.6c0-2.4-10-5.8-10-5.8-5.6-.1-5.3 14.2 0 14.2zm.8-12.8s7.7 3.1 7.7 5.1v1.1c0 2-7.7 5.1-7.7 5.1-4.4.3-5.5-11.3 0-11.3z"/><path d="M42 50.1h6v1.5h-6zM42 53.9h6v1.5h-6zM24.4 28.7c-4.5 1.8-8.1 4.1-9.8 6.1l-5-12.5c-.4-1 2.5-4 9.6-6.8 7-2.7 11.1-2.4 11.5-1.5l4.9 12.3c-2.6-.2-6.8.7-11.2 2.4zm-9.3 7.7c.9-1.6 4.4-4.2 9.7-6.3C30.1 28 34.4 27.5 36 28l1.2 2.9c-3.3.5-7.1 1.6-10.8 3.1-3.8 1.5-7.3 3.4-10.1 5.3l-1.2-2.9zm22.2-9.3l-5.4-13.6c-.3-.9-1.4-1.8-4.8-1.5-2.4.2-5.4 1-8.5 2.2-3.2 1.2-5.9 2.7-7.8 4.2-2.7 2.1-2.9 3.6-2.5 4.4l6.9 17.4c-.6.4-1.1.9-1.7 1.3-3.4 3-4.8 5.7-4 7.8.8 2.1 3.8 3.1 8.2 2.8 1.9-.1 4.1-.5 6.3-1 0-.2-.1-.5-.1-.7v-.7c-2.2.5-4.3.9-6.2 1-3.8.2-6.2-.5-6.8-1.9-.6-1.5.7-3.7 3.6-6.2 3.1-2.7 7.6-5.3 12.6-7.3S37 32.1 41 31.9c3.6-.2 6 .5 6.6 2 .6 1.4-.7 3.6-3.4 6-1.1 1-2.5 2-4 2.9.3.3.6.7.9 1.1 1.5-1 2.8-2 4-3 3.3-2.9 4.6-5.6 3.8-7.6-.8-2-3.6-3-7.9-2.8-.7 0-1.3.1-2.1.2l-1.6-3.6z"/></symbol><symbol viewBox="0 0 80 80" id="cadeau" xmlns="http://www.w3.org/2000/svg"><path fill-rule="evenodd" clip-rule="evenodd" d="M55.1 39c.6 0 1 .6 1 1.3.3 2.9.3 7.6.3 8.3 0 1 .3 5.7-.3 8.6 0 1-1.6 1.3-1.9 1.3h-9.6V39h10.5zm-19.7 0v19.4H24.9c-.3-.3-1-.6-1.3-1.3V40.3c.3-.6 1.3-1.3 1.9-1.3h9.9zm21-8.8c1.6.3 1.6 2.2 1.6 3.5 0 1.3.3 3.5-1.9 3.5H44.6v-7h11.8zm-13.7 0v28.3h-5.4V30.2h5.4zm-7.3 0v7H23c-1.3-.6-.9-2.5-.9-3.5 0-.9-.3-2.5.9-3.5h12.4zm13.7-5.4c0 1.3-3.5 3.5-5.1 3.5h-2.9v-1c1-1.6 2.2-6 5.1-6 1.3 0 2.9 2.2 2.9 3.5zm-10.2 2.5v1h-3.5c-1-.3-4.5-1.9-4.5-3.5 0-1.3 1.6-3.5 2.9-3.5 2.6 0 3.8 4.4 5.1 6zm1-1.3c2.6-2.5 3.2-6 6.4-6 2.6 0 4.1 2.5 4.1 4.4 0 1.6-1.3 1.9-2.2 4.1h4.5c4.1 0 7-.3 7 5.1 0 1.9.3 3.2-2.5 5.1.3.3.6 0 .6 1v17.8c-.6.6-2.6 2.5-3.2 2.5H25.2c-1-.3-2.9-1.6-2.9-2.2V39.7c.3-.3.3-.6.6-1-3.2-1.9-2.5-3.2-2.5-5.1 0-7.9 6.7-4.1 11.5-5.4-2.9-1.3-2.2-2.9-2.2-3.8 0-1.9 1.3-4.4 4.1-4.4 2.9 0 4.5 3.2 6.1 6z"/></symbol><symbol viewBox="0 0 27 27" id="calendar" xmlns="http://www.w3.org/2000/svg"><path d="M4 8v4h4V8H4zm5 0v4h4V8H9zm5 0v4h4V8h-4zm5 0v4h4V8h-4zm0 5v4h4v-4h-4zm0 5v4h4v-4h-4zm-5 0v4h4v-4h-4zm-5 0v4h4v-4H9zm0-5v4h4v-4H9zm5 0v4h4v-4h-4zM4 13v4h4v-4H4zM0 2v25h27V2h-2V0h-4v2h-2V0h-4v2h-2V0H9v2H7V0H3v2H0zm2 5h23v18H2V7z"/></symbol><symbol viewBox="0 0 160 160" id="calendar2" xmlns="http://www.w3.org/2000/svg"><path d="M48 46c-4.4.4-8 4.2-8 8.6v54.6c0 4.8 4 8.8 8.8 8.8h62.6c4.8 0 8.8-4 8.8-8.8V54.8c0-4.6-3.6-8.4-8-8.6v-4h-4v4h-6v-4h-4v4h-6v-4h-4v4h-6v-4h-4v4h-6v-4h-4v4h-6v-4h-4v4h-6v-4h-4V46H48zm4 4h6v4h4v-4h6v4h4v-4h6v4h4v-4h6v4h4v-4h6v4h4v-4h6v4h4v-3.8c2.2.4 4 2.4 4 4.8v54c0 2.8-2.2 5-5 5H49c-2.8 0-5-2.2-5-5V55c0-2.4 1.8-4.4 4-4.8V54h4v-4z"/><path d="M71.9 72.9c.9 0 1.8.1 2.5.4s1.4.6 2 1.1c.6.5 1 1.1 1.3 1.8.3.7.5 1.5.5 2.3 0 .7-.1 1.3-.3 1.9-.2.5-.4 1-.7 1.4-.3.4-.7.8-1.2 1-.5.3-1 .5-1.5.7 1.4.4 2.4 1 3.1 1.9s1 2 1 3.3c0 1-.2 1.9-.6 2.7-.4.8-.9 1.5-1.5 2s-1.4 1-2.3 1.3-1.8.4-2.8.4c-1.1 0-2.1-.1-2.9-.4s-1.5-.7-2-1.2c-.6-.5-1-1.1-1.4-1.8-.4-.7-.7-1.4-.9-2.3l1.2-.5c.3-.1.6-.2.9-.1.3.1.5.2.6.5.1.3.3.6.5 1s.5.8.8 1.1.8.7 1.3.9c.5.2 1.1.4 1.9.4.7 0 1.4-.1 1.9-.4.5-.2 1-.6 1.4-1 .4-.4.6-.8.8-1.3.2-.5.3-1 .3-1.4 0-.6-.1-1.1-.2-1.6s-.4-.9-.8-1.3-.9-.6-1.7-.8c-.7-.2-1.6-.3-2.7-.3v-2c.9 0 1.7-.1 2.3-.3s1.1-.5 1.5-.8.7-.7.9-1.2c.2-.5.3-1 .3-1.5 0-.6-.1-1.2-.3-1.6-.2-.5-.4-.8-.8-1.2-.3-.3-.7-.5-1.2-.7s-.9-.2-1.5-.2-1 .1-1.5.2c-.4.2-.8.4-1.2.7-.3.3-.6.6-.9 1-.2.4-.4.8-.5 1.3-.1.4-.2.6-.5.7s-.5.1-.9.1l-1.5-.2c.1-1 .4-1.9.8-2.7.4-.8.9-1.4 1.5-1.9s1.3-.9 2.1-1.2c1.1-.1 2-.2 2.9-.2zM96.3 84c0 1.9-.2 3.6-.6 5s-.9 2.6-1.6 3.5-1.5 1.6-2.5 2-2 .7-3 .7c-1.1 0-2.1-.2-3-.7-.9-.4-1.8-1.1-2.4-2S82 90.4 81.6 89s-.6-3.1-.6-5 .2-3.6.6-5c.4-1.4.9-2.6 1.6-3.5.7-.9 1.5-1.6 2.4-2.1.9-.4 2-.7 3-.7 1.1 0 2.1.2 3 .7s1.8 1.1 2.5 2.1c.7.9 1.2 2.1 1.6 3.5.4 1.5.6 3.1.6 5zm-2.9 0c0-1.7-.1-3.1-.4-4.2-.3-1.1-.6-2-1.1-2.7-.4-.7-1-1.2-1.6-1.5-.6-.3-1.2-.4-1.8-.4-.6 0-1.3.1-1.8.4s-1.1.8-1.5 1.5c-.4.7-.8 1.6-1.1 2.7-.3 1.1-.4 2.5-.4 4.2s.1 3.1.4 4.2.6 2 1.1 2.7c.4.7 1 1.2 1.5 1.5s1.2.4 1.8.4c.6 0 1.3-.1 1.8-.4.6-.3 1.1-.8 1.6-1.5.4-.7.8-1.6 1.1-2.7s.4-2.5.4-4.2z"/></symbol><symbol viewBox="0 0 130 130" id="camera" xmlns="http://www.w3.org/2000/svg"><path d="M34.6 38.4v3h9.1v-3h-9.1zM84 54.3c0 1.7 1.4 3 3 3 1.7 0 3-1.4 3-3s-1.4-3-3-3-3 1.4-3 3zm-19-3.8c-8.2 0-16.7 5.6-16.7 16.7C48.3 78.5 56.8 84 65 84s16.7-5.6 16.7-16.7c0-11.2-8.5-16.8-16.7-16.8zm0 3.3c6.9 0 13.6 4.5 13.6 13.5S71.9 80.8 65 80.8s-13.6-4.5-13.6-13.5S58.1 53.8 65 53.8zm-32.9-9.4c-3.7 0-6.6 3-6.6 6.6v35.4c0 3.7 3 6.6 6.6 6.6H98c3.7 0 6.6-3 6.6-6.6V51.1c0-3.7-3-6.6-6.6-6.6H83.4l-9.3-7.6H56.2l-9.3 7.6H32.1zm50.2 3.1h15.5c2.1 0 3.8 1.7 3.8 3.8v35c0 2.1-1.7 3.8-3.8 3.8H32.3c-2.1 0-3.8-1.7-3.8-3.8v-35c0-2.1 1.7-3.8 3.8-3.8h16l9.5-7.6h14.9l9.6 7.6z"/></symbol><symbol viewBox="0 0 32 32" id="checkmark" xmlns="http://www.w3.org/2000/svg"><path d="M2 14.7l10.9 11.7h.9L30 8.7l-2.5-3.1L13.4 21l-8.5-8.6L2 14.7z"/></symbol><symbol viewBox="0 0 22 22" id="clock" xmlns="http://www.w3.org/2000/svg"><path d="M11 0C4.9 0 0 4.9 0 11s4.9 11 11 11 11-4.9 11-11S17.1 0 11 0zm0 20.5c-5.2 0-9.5-4.3-9.5-9.5S5.8 1.5 11 1.5s9.5 4.3 9.5 9.5-4.3 9.5-9.5 9.5z"/><path d="M17.5 9.5L12 11.2V4h-2v9.6l8-2.4z"/></symbol><symbol viewBox="0 0 62 62" id="cook" xmlns="http://www.w3.org/2000/svg"><path d="M3.5 26.7c0 7.2 5.7 13.1 12.8 13.1 3.8 0 3 11.1 3 15.5h5.2v.5h2v-.5h4v.5h2v-.5h3v.5h2v-.5h5.3c0-4.6-.8-15.5 3-15.5 7 0 12.8-5.9 12.8-13.1 0-7.2-5.7-13.1-12.8-13.1-.9 0-1.9.1-2.7.3-2-4.5-6.4-7.6-11.6-7.6-5.2 0-9.7 3.2-11.7 7.8-1.1-.3-2.3-.5-3.5-.5-7.1 0-12.8 5.9-12.8 13.1zm1.6.2c0-6.8 5.4-11.5 12-11.5 1.1 0 2.2.2 3.3.4 1.8-4.3 6.1-8.2 11-8.2 4.8 0 9 3.8 10.9 8 .8-.2 1.7-.3 2.6-.3 6.6 0 12 4.7 12 11.5s-6.2 11.5-12.8 11.5c-3.5 0-2.8 11.1-2.8 15.4h-3.8v-9h-2v9h-3v-9h-2v9h-4v-9h-2v9h-3.7c0-4.2.7-15.4-2.9-15.4-6.6.1-12.8-4.6-12.8-11.4z"/></symbol><symbol viewBox="0 0 34 34" id="cross" xmlns="http://www.w3.org/2000/svg"><path d="M34 4l-4-4-13 13L4 0 0 4l13 13L0 30l4 4 13-13 13 13 4-4-13-13z"/></symbol><symbol viewBox="0 0 14 14" id="cross2" xmlns="http://www.w3.org/2000/svg"><path d="M0 13.1l.8.9L7 7.8l6.2 6.2.8-.9L7.9 7 14 .9l-.9-.9L7 6.1.9 0 0 .9 6.1 7 0 13.1z"/></symbol><symbol viewBox="0 0 43 43" id="currency" xmlns="http://www.w3.org/2000/svg"><path d="M23 14.5c-2.1 0-3.8.6-5.1 1.9-.9.8-1.4 1.9-1.7 3.1H15l-1 2h2v1h-1l-1 2h1.9c.3 1.5.9 2.8 1.8 3.8 1.3 1.5 3 2.2 5.1 2.2 1.2 0 2.3-.2 3.2-.7v-3.3c-.9.7-2 1-3.5 1-1.2 0-2.2-.4-3-1.2-.2-.4-.4-1-.5-1.8h4l1-2h-5V22v-.5h5l1-2h-6c.2-.5.5-.9.9-1.2.7-.5 1.7-.8 2.9-.8s2.1.3 2.7 1l.5-3.3c-.8-.4-1.8-.7-3-.7zm-20 9c0 9.9 8.1 18 18 18 6.5 0 12.2-3.5 15.4-8.6l3.6 3.6v-9h-9l3.9 3.9c-2.8 4.8-8 8.1-13.9 8.1-8.8 0-16-7.2-16-16H3zm37-4c0-9.9-8.1-18-18-18-6.5 0-12.2 3.5-15.4 8.6L3 6.5v9h9l-3.9-3.9c2.8-4.8 8-8.1 13.9-8.1 8.8 0 16 7.2 16 16h2z"/></symbol><symbol viewBox="0 0 62 62" id="depliant" xmlns="http://www.w3.org/2000/svg"><path d="M43.4 8.4c-1 .6-1.8 1.5-2.5 2.6-.7-1-1.6-1.9-2.5-2.6L23.7.7c-1-.6-1.8-.8-2.5-.7-.7-.1-1.6.1-2.5.7L3.9 8.4C1.8 9.7 0 12.7 0 14.8v40c0 2.2 1.8 2.8 3.9 1.4l14.7-7.6c1-.6 1.8-1.3 2.5-2-.9-.9-1.4-1.9-1.4-3.1v-.3c0 .8-.6 1.9-1.5 2.5l-14 7.8c-.8.6-1.5.4-1.5-.5V13.8c0-.8.6-1.9 1.5-2.5l14-7.8c.8-.6 1.5-.4 1.5.5V43.6c0 1.2.5 2.2 1.4 3.1.9-.9 1.4-1.9 1.4-3.1V3.9c0-.8.6-1 1.5-.5l14 7.8c.8.6 1.5 1.7 1.5 2.5v39.4c0 .8-.6 1-1.5.5l-14-7.8c-.8-.6-1.5-1.7-1.5-2.5v.3c0 1.2-.5 2.2-1.4 3.1.7.7 1.6 1.4 2.5 2l14.7 7.6c1 .6 1.8.8 2.5.7.7.1 1.6-.1 2.5-.7L58 48.7c2.2-1.4 3.9-2.9 3.9-5.1V2.2C61.9 0 60.1-.6 58 .8L43.4 8.4zm.3 2.9l14-7.8c.8-.6 1.5-.4 1.5.5v39.3c0 .8-.6 1.9-1.5 2.5l-14 7.8c-.8.6-1.5.4-1.5-.5V13.7c.1-.8.7-1.9 1.5-2.4z"/></symbol><symbol viewBox="0 0 160 160" id="directions" xmlns="http://www.w3.org/2000/svg"><path d="M79.8 30l-6.3 7.9 1.6 1.6 3.2-4v30h3.2v-30l3.2 4 1.6-1.6M86.4 122.1l-1.6-1.6-3.2 4.1v-30h-3.2v30l-3.2-4.1-1.6 1.6 6.2 7.9M122.2 73.5l-1.7 1.6 4.1 3.3H94.7v3.2h29.9l-4.1 3.3 1.7 1.6 7.8-6.3M30 80.2l7.8 6.3 1.7-1.6-4.1-3.3h29.9v-3.2H35.4l4.1-3.3-1.7-1.6"/></symbol><symbol viewBox="0 0 16 19" id="download" xmlns="http://www.w3.org/2000/svg"><path d="M16 10.73V7.826l-6.667 6.613V0H6.667v14.439L0 7.745l.041 2.971L8 19l8-8.27z" class="becls-1"/></symbol><symbol viewBox="0 0 60 60" id="eiffel" xmlns="http://www.w3.org/2000/svg"><path d="M31.6 38.7c.4 2.7 1 5.1 1.6 7.2h-6.4c.7-2 1.2-4.5 1.6-7.2h3.2zm-5.2-2.6h-.6c-.2 0-.3.2-.3.3l.6 1.5c-.7 3.9-1.5 6.9-2.5 8.9h12.8c-.9-2-1.8-5-2.5-8.9l.6-1.5c0-.2-.1-.3-.3-.3h-7.8zm16.3 23.6c0-.1-.8-2.6-4.7-9.8v-2.3H22v2.3c-3.9 7.2-4.6 9.7-4.7 9.8l-.1.3h5.4v-.2c.4-3.9 3.6-6.9 7.3-6.9h.1c3.7 0 6.8 3 7.3 6.9v.2h5.4v-.3zM28.6 6.5c0 .5-.2 15.6-2 28.1h6.8c-1.8-12.2-2-25.4-2-28.1l.1-.5c.2-.1.4-.5.4-.9V3.8c0-.5-.2-.9-.5-.9l-.9-.2V.5c0-.3-.2-.5-.5-.5s-.5.2-.5.5v2.1l-1 .3c-.2.1-.5.4-.5.9v1.3c0 .4.2.7.4.9l.2.5z"/></symbol><symbol viewBox="0 0 80 80" id="eiffel2" xmlns="http://www.w3.org/2000/svg"><path d="M31.6 55.7l.7-.5h14.9l1.2.5c.1 4 3.6 8.8 5.2 12.6h-4c-1.7-11.1-17.4-10.9-19.3 0h-4c1.7-3.8 5.2-8.6 5.3-12.6zM44 44c.5 3.2 1.1 6.1 1.9 8.5l-.9.5h-9.5l-1.4-.5c.8-2.4 1.4-5.3 1.9-8.5h8zm2-1.6H34l.3.8c-.8 4.6-1.8 8.1-2.9 10.5l.9.4H30l-.6.7C30.1 58.4 25 65 23.8 69l.7 1h7.2l.6-.6c.9-9.9 14.6-9.6 15.3-.1l.6.6h7.2l.8-1c-1.1-4-6.2-10.7-5.6-14.3L50 54h-1.8l.4-.4c-1.1-2.4-2.1-5.9-2.9-10.6l.3-.6zm-3.3 0l2.4.1s-4.5-30.2-3.4-37.1c.2-.3.3-.7.3-1.1 0-.7-.3-1.3-.9-1.7L39.8 0l-1.3 2.5c-.5.4-.9 1-.9 1.7 0 .4.1.8.3 1.1 1 6.9-3.4 37.1-3.4 37.1l2.4-.1 2.9-27.2 2.9 27.3z"/></symbol><symbol viewBox="0 0 130 130" id="eye" xmlns="http://www.w3.org/2000/svg"><path d="M74.4 65.2c0 1.5-1.2 2.6-2.6 2.6-1.4 0-2.6-1.2-2.6-2.6 0-1.4 1.2-2.6 2.6-2.6 1.4 0 2.6 1.1 2.6 2.6zM51.6 65c.1-3.6 3-6.5 6.7-6.5a6.7 6.7 0 0 1 0 13.4c-3.2 0-5.9-2.3-6.6-5.3.8 6.3 6.1 11.1 12.6 11.1C71.3 77.7 77 72 77 65c0-7-5.7-12.7-12.7-12.7-7 0-12.7 5.7-12.7 12.7zm0 .2c0 .5.1 1 .2 1.5-.2-.6-.2-1.1-.2-1.5zM50 45.5c-5.7 3.8-9.8 10.3-9.8 19.5s4.1 15.6 9.8 19.5c-9.5-3.3-17.6-9.8-22-19.5 4.4-9.7 12.5-16.2 22-19.5zm26.6 40C83.2 81.8 88.1 75 88.1 65s-4.9-16.9-11.5-20.5c10.9 2.8 20.5 9.7 25.5 20.5-5 10.8-14.6 17.7-25.5 20.5zM64.1 43.1c10.4 0 22.2 8.4 22.2 21.9S74.5 86.9 64.1 86.9c-10.4 0-22.2-8.5-22.2-21.9s11.8-21.9 22.2-21.9zm.9-3.7c-15.3 0-30.8 7-38.7 21.2 0 .1-1.1 1.6-2.3 4.4 1 2.2 1.6 3.2 2.3 4.5C34.2 83.6 49.7 90.6 65 90.6c15.3 0 30.9-7 38.7-21.2 1-1.8 1.9-3.9 2.3-4.3l-2.3-4.6C95.9 46.4 80.3 39.4 65 39.4z"/></symbol><symbol viewBox="0 0 38 38" id="face" xmlns="http://www.w3.org/2000/svg"><path d="M15.1 18.7c0-.9-.7-1.6-1.6-1.6-.9 0-1.6.7-1.6 1.6 0 .9.7 1.6 1.6 1.6.9 0 1.6-.7 1.6-1.6zm9.3-1.7c-.9 0-1.6.7-1.6 1.6 0 .9.7 1.6 1.6 1.6s1.6-.7 1.6-1.6c0-.8-.7-1.6-1.6-1.6zm-10.9 9.6s1.6 2.8 5.5 2.8c3.8 0 5.5-2.8 5.5-2.8s-1.8.7-5.5.7c-3.7.1-5.5-.7-5.5-.7zm5.4 8.8c-3.6 0-13.8-7.8-13.8-16.4 0-1.1 1.1-2.1 1.3-3.1 2.8-1.1 5.2-3.7 6.4-7 2.7 3 8.4 5.1 15 5.1 1.1 0 2.2-.1 3.2-.2.5 1.7 1.8 3.4 1.8 5.3 0 8.5-10.2 16.3-13.9 16.3zm0-34.4c-.7 0-1.3.1-2 .2-.4.1-.7.1-1.1.2h-.1c-.8.2-1.5.4-2.2.7l-.6.3c-.5.3-1.1.5-1.6.8-3.4 2.2-6 5.9-7.2 10.3-.2-.5-1.1 7.2.2 9.9C6.8 31.2 14.6 37 18.9 37c5.1 0 15.4-8 15.4-18S27.5 1 18.9 1z"/></symbol><symbol viewBox="0 0 80 80" id="face2" xmlns="http://www.w3.org/2000/svg"><path d="M36.1 39.7c0-.9-.7-1.6-1.6-1.6-.9 0-1.6.7-1.6 1.6 0 .9.7 1.6 1.6 1.6.9 0 1.6-.7 1.6-1.6zm9.3-1.7c-.9 0-1.6.7-1.6 1.6 0 .9.7 1.6 1.6 1.6.9 0 1.6-.7 1.6-1.6 0-.8-.7-1.6-1.6-1.6zm-10.9 9.6s1.6 2.8 5.5 2.8c3.8 0 5.5-2.8 5.5-2.8s-1.8.7-5.5.7c-3.7.1-5.5-.7-5.5-.7zm5.4 8.8c-3.6 0-13.8-7.8-13.8-16.4 0-1.1 1.1-2.1 1.3-3.1 2.9-1.1 5.2-3.7 6.4-7 2.7 3 8.4 5.1 15 5.1 1.1 0 2.2-.1 3.2-.2.5 1.7 1.8 3.4 1.8 5.3 0 8.5-10.2 16.3-13.9 16.3zm0-34.4c-.7 0-1.3.1-2 .2-.4 0-.7.1-1.1.2h-.1c-.8.2-1.5.4-2.2.7l-.6.3c-.5.3-1.1.5-1.6.8-3.4 2.2-6 5.9-7.2 10.3-.2-.5-1.1 7.1.2 9.9C27.8 52.2 35.6 58 39.9 58c5.1 0 15.4-8.1 15.4-18 .1-9.9-6.8-18-15.4-18z"/></symbol><symbol viewBox="0 0 20 20" id="facebook" xmlns="http://www.w3.org/2000/svg"><path d="M14.8 1.2C13.7.9 13 .8 12.1.8c-1.9 0-4.3.4-4.9 3.5v4L7 8.2v.1H5.2v3h2.3v7.9h3.9V11.3h3.4V8.4h-3.4v-.2h-.1V7.1c0-1.1-.3-2.7 1.7-2.7.2 0 1.5.3 1.6.3.1 0 .1-.3.2-.6V1.2z"/></symbol><symbol viewBox="0 0 62 62" id="family" xmlns="http://www.w3.org/2000/svg"><path d="M40.5 30.6c0-1-.8-1.8-1.8-1.8s-1.8.8-1.8 1.8.8 1.8 1.8 1.8 1.8-.8 1.8-1.8zm10.4-1.8c-1 0-1.8.8-1.8 1.8s.8 1.8 1.8 1.8 1.8-.8 1.8-1.8-.8-1.8-1.8-1.8zM38.7 39.5s1.8 3.2 6.1 3.1 6.1-3.1 6.1-3.1-2.1.8-6.1.8c-4.1 0-6.1-.8-6.1-.8zM9.8 32.8c1 0 1.8-.8 1.8-1.8s-.8-1.8-1.8-1.8S8 30 8 31s.8 1.8 1.8 1.8zm9.5-3.6c-1 0-1.8.8-1.8 1.8s.8 1.8 1.8 1.8 1.8-.8 1.8-1.8-.8-1.8-1.8-1.8zM8 36.7s1.8 3.6 6.7 3.6 6.5-3.4 6.5-3.4-3.6.5-6.5.5c-2.9-.1-6.7-.7-6.7-.7zm36.8 12.4c-4 0-15.3-8.6-15.3-18.1 0-1.2 1.1-2.4 1.3-3.5 3.2-1.2 5.8-4.1 7.1-7.8 3 3.3 9.4 5.6 16.8 5.6 1.2 0 2.4-.1 3.6-.2.6 1.8 1.9 3.8 1.9 5.9-.1 9.5-11.4 18.1-15.4 18.1zm-30.1-5.2c-6.8 0-13.3-6.5-13.3-13.2 0-.9.1-1.7.3-2.5.3 0 4.8-.1 5.1-.1 0 0-2-4.9 6.1-7.4 0 0 4.1 7.5 13.8 7.5.2.8 1.3 1.7 1.3 2.5 0 6.7-6.5 13.2-13.3 13.2zM44.8 11c-.7 0-1.5.1-2.2.2-.4.1-.8.1-1.2.2h-.1c-.9.2-1.7.5-2.5.8l-.6.3-1.8.9c-3.8 2.4-6.7 6.5-8.1 11.4-.2-.6-.5-1.2-.9-1.7l-.2-.3c-.4-.6-.8-1.2-1.3-1.8h-.1c-1-1.1-2.2-2.1-3.5-2.9l-.3-.2c-.6-.4-1.3-.7-2-1l-.3-.1c-.7-.3-1.5-.5-2.2-.6h-.1c-.8-.1-1.6-.2-2.5-.2h-.2c-.8 0-1.7.1-2.5.2h-.1c-.8.1-1.5.4-2.2.6l-.5.2c-.7.3-1.4.6-2 1l-.2.1c-1.3.8-2.5 1.8-3.5 2.9l-.2.2c-.5.5-.9 1.1-1.3 1.8-.1 0-.1.1-.2.2-.4.6-.7 1.3-1 2 0 0-1.9 4.1-.5 9.4 1.7 6.2 7.4 10.8 14.2 10.8 6.3 0 11.6-4 13.7-9.5C31.2 44.6 39.9 51 44.8 51 50.5 51 62 42 62 31s-7.7-20-17.2-20z"/></symbol><symbol viewBox="0 0 80 80" id="file" xmlns="http://www.w3.org/2000/svg"><path d="M30 37v2h19v-2H30zm6-6v2h13v-2H36zm-6 12v2h19v-2H30zm0 6v2h19v-2H30zm25-17.6V21H28c-1.9 0-4 2.1-4 4v34h27.5c1.9 0 3.5-1.6 3.5-3.5V31.4zM46.2 23H53l.1 3.9L53 31v24c0 1.1-.9 2-2 2H26V25c0-1.1 1.1-2 2.2-2h18z"/></symbol><symbol viewBox="0 0 20 20" id="googleplus" xmlns="http://www.w3.org/2000/svg"><path d="M8.1 3.5c-.2-.5-.5-.9-.9-1.2-.5-.2-.9-.4-1.4-.4-.7 0-1.3.3-1.8.8-.4.5-.6 1.1-.5 1.8 0 .9.3 1.8.8 2.7.3.4.6.8 1 1.1.4.3.9.5 1.4.5.7 0 1.2-.2 1.7-.7.2-.3.4-.6.4-.9 0-.3.1-.6.1-.8 0-1-.3-2-.8-2.9zM6 12.6c-.5.1-1.1.2-1.6.3l-.6.3c-.2.1-.5.2-.7.4-.2.2-.4.4-.6.7-.2.3-.3.7-.3 1.1 0 .8.4 1.5 1.2 2.1.8.5 1.8.8 3.2.8 1.2 0 2.1-.3 2.8-.7.6-.5.9-1.1.9-1.8 0-.6-.2-1.1-.6-1.6-.5-.4-1.2-1-2.1-1.6H6zM9.3 2c.2.1.3.2.5.4s.4.4.6.7c.2.3.3.6.5.9.1.4.2.8.2 1.2 0 .9-.2 1.5-.6 2.1-.2.2-.4.5-.6.7-.3.2-.5.4-.8.6-.2.2-.3.3-.4.5-.2.2-.3.4-.3.7 0 .3.1.5.2.6.1.2.3.3.4.4l.9.7c.5.4 1 .9 1.4 1.4.4.5.6 1.2.6 2 0 1.2-.5 2.2-1.7 3.1-1.1.9-2.8 1.4-4.9 1.4-1.8 0-3.2-.4-4-1.1C.4 17.6 0 16.9 0 16c0-.5.1-.9.4-1.5.3-.5.8-1 1.5-1.4.8-.4 1.7-.7 2.6-.9 1-.2 1.8-.2 2.4-.3-.2-.2-.4-.5-.5-.7-.2-.2-.3-.6-.3-.9 0-.2 0-.4.1-.5l.2-.4h-.8c-1.4 0-2.5-.4-3.2-1.2-.7-.7-1.1-1.6-1.1-2.6 0-1.2.5-2.2 1.6-3.2.7-.6 1.5-.9 2.3-1.1C6 1.2 6.7 1 7.4 1h5.2L11 2H9.3zM20 5h-2.9v3h-1.5V5h-3.1V3.5h3.1V.6h1.5v2.8H20V5z"/></symbol><symbol viewBox="0 0 26 26" id="home" xmlns="http://www.w3.org/2000/svg"><path d="M4.3 16.3V24h17.3v-7.7L13 7.8l-8.7 8.5zM13 2L0 14.8l1.7 1.7L13 5.4l11.3 11.1 1.7-1.7L13 2z"/></symbol><symbol viewBox="0 0 80 80" id="image" xmlns="http://www.w3.org/2000/svg"><path d="M29.4 31.8c-1.8 0-3.2 1.4-3.2 3.2 0 1.8 1.4 3.2 3.2 3.2 1.8 0 3.2-1.4 3.2-3.2 0-1.8-1.4-3.2-3.2-3.2zM57.5 25H19v27c0 1.9 2.1 4 4 4h38V28.5c0-1.9-1.6-3.5-3.5-3.5zM59 54H23c-1.1 0-2-1.1-2-2.2V49h38v5zm-24.8-7l3.8-5.9c.2-.5.6-.1.8.6l3.5 3.8L48 32.9c.3-.6.8-.9 1-.4L54.3 47H34.2zM59 47h-2.9l-6-16c-.6-1.3-2.1-1.4-2.9.2l-5.1 11.1-2.7-2.3c-.7-1.6-1.8-1.8-2.5-.5L32.4 47H21V27h36c1.1 0 2 .9 2 2v18z"/></symbol><symbol viewBox="0 0 60 50" id="images" xmlns="http://www.w3.org/2000/svg"><path d="M12.5 10.5c-2.2 0-4 1.8-4 4s1.8 4 4 4 4-1.8 4-4-1.8-4-4-4zM2 32h48v6H4.5C3.1 38 2 36.9 2 35.5V32zm50 0V6.4C52 4 50 2 47.6 2H0v33.7C0 38 2 40 4.4 40H52v-8zm-2-2h-4L38.3 9.5c-.8-1.6-2.7-1.7-3.6.3l-6.4 13.9-3.3-3c-.9-2-2.3-2.3-3.1-.7l-6 10H2V4h45.5C48.9 4 50 5.1 50 6.5V30zm-6.2 0H18.2l5-7.8c.3-.6.7-.1 1.1.7l4.4 4.8 7.1-15.8c.3-.8.9-1.1 1.3-.5L43.8 30zM4.7 42c.8 1.2 2.1 2 3.7 2H56V10.4c0-1.5-.8-2.9-2-3.7V42H4.7zm4 4c.8 1.2 2.1 2 3.7 2H60V14.4c0-1.5-.8-2.9-2-3.7V46H8.7z"/></symbol><symbol id="incontournable" viewBox="0 0 80 80" xml:space="preserve" xmlns="http://www.w3.org/2000/svg"><style>.brst0{fill-rule:evenodd;clip-rule:evenodd}</style><path class="brst0" d="M53.2 49.7l-.7-.7-1.7 1.7-1.6-1.7-.7.7 2.3 2.4 2.4-2.4zm0 6.2l-.7-.7-1.7 1.7-1.6-1.7-.7.7 2.3 2.4 2.4-2.4zm1.4 0l2.3 2.4 2.3-2.4-.7-.7-1.7 1.7-1.6-1.7-.6.7zm-7.6 0l-.7-.7-1.7 1.7-1.6-1.7-.7.7 2.3 2.4 2.4-2.4zm3-3.1l-.7-.7-1.7 1.7-1.6-1.6-.7.7 2.3 2.4 2.4-2.5zm1.6 0l2.3 2.4 2.4-2.4-.7-.7-1.7 1.7-1.6-1.7-.7.7zM50 58.9l-.7-.7-1.7 1.7-1.6-1.7-.7.7 2.3 2.4 2.4-2.4zm-6 0l-.7-.7-1.7 1.7-1.6-1.7-.7.7 2.3 2.4 2.4-2.4zm12.3 0l-.7-.7-1.7 1.7-1.6-1.7-.7.7 2.3 2.4 2.4-2.4zm1.2 0l2.3 2.4 2.3-2.4-.7-.7-1.7 1.7-1.6-1.7-.6.7zm-8.1 5.5l-1.7 1.7-1.7-1.7-.7.7 2.3 2.4 2.3-2.4-.5-.7zm6.2 0l-1.7 1.7-1.6-1.7-.7.7 2.3 2.4 2.4-2.4-.7-.7zm5.9 0l-1.7 1.7-1.6-1.7-.7.7 2.3 2.4 2.3-2.4-.6-.7zm6 0l-1.7 1.7-1.6-1.7-.7.7 2.3 2.4 2.3-2.4-.6-.7zM53.2 62l-.7-.7-1.7 1.7-1.6-1.7-.7.7 2.3 2.4 2.4-2.4zm6 0l-.7-.7-1.6 1.7-1.6-1.7-.7.7 2.3 2.4 2.3-2.4zm1.3.1l2.3 2.4 2.4-2.4-.7-.7-1.6 1.6-1.6-1.7-.8.8zm-15.9.9L43 61.4l-.7.7 2.3 2.4L47 62l-.7-.7-1.7 1.7zm-1.3 1.4l-1.7 1.7-1.6-1.7-.7.7 2.3 2.4 2.3-2.4-.6-.7zm-5.8 0l-1.7 1.7-1.7-1.7-.7.7 2.3 2.4 2.3-2.4-.5-.7zM41 62l-.7-.7-1.7 1.7-1.6-1.6-.7.7 2.3 2.4L41 62zm9.8 7.2l-1.6-1.7-.7.7 2.1 2.1h-5.7l2.1-2.1-.7-.7-1.7 1.7-1.6-1.6-.7.7 2.1 2.1h-5.5l2.1-2.1-.7-.7-1.7 1.7-1.6-1.7-.7.7 2.1 2.1h-5.5l2.1-2.1-.7-.7-1.7 1.7-1.6-1.7-.7.7 2.1 2.1h-6.3l24.8-24.8 24.5 24.8h-6.3l2.1-2.1-.7-.7-1.7 1.7-1.6-1.7-.7.7 2.1 2.1h-5.4l2.1-2.1-.7-.7-1.7 1.7-1.6-1.7-.7.7 2.1 2.1h-5.5l2.1-2.1-.7-.7-1.7 1.7-1.6-1.7-.7.7 2.1 2.1h-5.6l2.1-2.1-.7-.7-1.7 1.6zm-24.9 1.5h-.2l.2-.2v.2zm25-27.2L23.2 71.7H78L50.9 43.5zm-27.5 3.1c.5 3.1 1.1 5.8 1.9 8.1l-.9.5h-9.2l-1.3-.5c.8-2.3 1.4-5.1 1.9-8.1h7.6zm1.9-1.6H13.8l.3.7c-.8 4.5-1.7 7.9-2.8 10.1l.9.4H9.9l-.6.7c.7 3.5-4.2 9.9-5.3 13.7l.7.9h6.9l.6-.6c.6-6.7 7.4-8.5 11.5-5.8l1.5-1.5c-5.1-3.6-13.6-1.5-14.9 6.2H6.4c1.6-3.7 4.9-8.2 5-12.1l.7-.5h14.3l1.2.5c0 .9.2 1.9.6 2.9l1.6-1.7c-.2-.8-.2-1.5-.1-2.1l-.6-.7h-1.7l.4-.4c-1.1-2.3-2-5.7-2.8-10.1l.3-.6zm-3.2 0l2.3.1s-4.3-29-3.3-35.7c.2-.3.3-.6.3-1 0-.7-.3-1.3-.8-1.6l-1.2-2.4-1.2 2.4c-.5.4-.8 1-.8 1.6 0 .4.1.7.3 1 1 6.7-3.3 35.7-3.3 35.7l2.3-.1 2.8-26.1L22.1 45z"/></symbol><symbol viewBox="0 0 38 38" id="infos" xmlns="http://www.w3.org/2000/svg"><path d="M20.8 23c.5 0 .8-.2.8-.6-.1-.4-.3-.6-.8-.6s-.7-.3-.8-.9v-6.6c0-.6-.2-.9-.5-1-.4-.1-.9 0-1.6.4-.7.3-1 .6-1 .9 0 .3.1.4.3.5.2.1.3.4.4.9v5.1c0 .5-.3.8-.7.8-.4 0-.6.1-.6.5s.2.6.6.6h3.9zm-.9-14c.1-.9-.4-1.5-1.2-1.6-.9.1-1.3.5-1.3 1.4 0 .9.4 1.4 1.2 1.4.8 0 1.3-.4 1.3-1.2zM30 4.6c-6-6.2-15.9-6.2-21.9 0C2 10.8 2 20.8 8 27l11 11 10.9-11C36 20.8 36 10.8 30 4.6zM9.3 25.4C4 20 4 11.3 9.3 5.9c5.2-5.4 13.8-5.4 19 0 5.2 5.4 5.2 14.1 0 19.4-5.3 5.4-13.8 5.4-19 .1z"/></symbol><symbol viewBox="0 0 20 20" id="instagram" xmlns="http://www.w3.org/2000/svg"><path d="M6.6 10.1c0-1.9 1.5-3.4 3.4-3.4s3.4 1.5 3.4 3.4-1.5 3.4-3.4 3.4-3.4-1.5-3.4-3.4zM3.4 8.6h1.8c-.1.5-.2 1-.2 1.5 0 2.8 2.3 5.1 5.1 5.1s5.1-2.3 5.1-5.1c0-.5-.1-1-.2-1.5h1.8v7.2c0 .4-.4.8-.8.8H4.2c-.4 0-.8-.4-.8-.8V8.6zm10.2-5.2h2.5c.3 0 .5.2.5.5v2.5c0 .3-.2.5-.5.5h-2.5c-.3 0-.5-.2-.5-.5V3.9c0-.3.2-.5.5-.5zM3.2 1.5c-.9 0-1.7.8-1.7 1.7v13.7c0 .9.8 1.7 1.7 1.7h13.7c.9 0 1.7-.8 1.7-1.7V3.2c0-.9-.8-1.7-1.7-1.7H3.2z"/></symbol><symbol viewBox="0 0 32 32" id="less" xmlns="http://www.w3.org/2000/svg"><path d="M0 12.758h32v6.4H0z"/></symbol><symbol viewBox="0 0 102 102" id="light" xmlns="http://www.w3.org/2000/svg"><path d="M51.4 27c-.6 0-1.2.5-1.2 1.2v8c0 .7.5 1.2 1.2 1.2.6 0 1.2-.5 1.2-1.2v-8c0-.7-.6-1.2-1.2-1.2zm12.9 24.4c0 .7.5 1.2 1.2 1.2h7.8c.6 0 1.2-.5 1.2-1.2s-.5-1.2-1.2-1.2h-7.8c-.7 0-1.2.5-1.2 1.2zM50.6 75c.6 0 1.2-.5 1.2-1.2v-8c0-.7-.5-1.2-1.2-1.2-.6 0-1.2.5-1.2 1.2v8c0 .7.6 1.2 1.2 1.2zM37.7 50.6c0-.7-.5-1.2-1.2-1.2h-7.8c-.6 0-1.2.5-1.2 1.2s.5 1.2 1.2 1.2h7.8c.7 0 1.2-.5 1.2-1.2zm28.7-17.7c-.5-.4-1.2-.4-1.7.1l-5 6.1c-.4.5-.4 1.3.1 1.7.5.4 1.2.4 1.6-.1l5-6.1c.6-.5.5-1.3 0-1.7zM61 60.1c-.4.5-.4 1.3.1 1.7l6 5.1c.5.4 1.2.4 1.7-.2.4-.5.4-1.3-.1-1.7l-6-5.1c-.6-.4-1.3-.4-1.7.2zm-25.4 9c.5.4 1.2.4 1.7-.2l5-6.1c.4-.5.4-1.3-.1-1.7-.5-.4-1.2-.4-1.6.1l-5 6.1c-.6.7-.5 1.4 0 1.8zM41 42c.4-.5.4-1.3-.1-1.7l-6-5.1c-.5-.4-1.2-.4-1.7.1-.4.5-.4 1.3.1 1.7l6 5.1c.6.4 1.3.4 1.7-.1z"/></symbol><symbol viewBox="0 2 26 26" id="linkedin" xmlns="http://www.w3.org/2000/svg"><path d="M24.7 2H1.3C.6 2 0 2.6 0 3.3v23.4c0 .7.6 1.3 1.3 1.3h23.4c.7 0 1.3-.6 1.3-1.3V3.3c0-.7-.6-1.3-1.3-1.3zM7.5 24.3H3.8v-13h3.8v13zM5.5 9C4 9 3.3 7.5 3.3 6.8c0-1.5 1.3-2 2.3-2 1.5 0 2.3 1.3 2.3 2C7.8 8.3 6.5 9 5.5 9zm17.8 15.3h-3.5v-8c-.6-1.9-1.8-2-2.5-2-2 0-2.8 1.5-2.8 3v7H11v-13h3.5c0 .5 0 1.3.3 1.8 1.5-2.3 2.5-2 4-2 1.3 0 4.5.5 4.5 3.3v9.9z"/></symbol><symbol viewBox="0 0 38 38" id="list" xmlns="http://www.w3.org/2000/svg"><path d="M14 30h24v2H14zM14 18h24v2H14zM14 6h24v2H14zM0 12h10V2H0v10zm8-2H2V4h6v6zM0 24h10V14H0v10zm8-2H2v-6h6v6zM0 36h10V26H0v10zm8-2H2v-6h6v6z"/></symbol><symbol viewBox="0 0 62 62" id="love" xmlns="http://www.w3.org/2000/svg"><path d="M47.8 31.8v1.7c-2.3 6.7-7.9 12.2-13.5 18.9l-18-20.6h31.5zm-34.3-1.6c-.4-1.4-1.1-2.2-1.9-2.7H3.5c.6 1 1.6 1.6 1.6 3.2 0 .9-.8 1.9-1.4 2.8h8.4c.5-.9.9-1.7 1.4-1.7C20.3 39 27 46.8 32.6 54c0 1.7 0 3.3.6 4.4h2.3c.6-1.7-.6-3.9 1.1-5 6.8-8.3 12.9-14.4 14.1-21.7.6-.5 0-.5 1.7-.5.6 0 .9 0 1.1.1.2.1.1 3.6.1 3.6 0 1.1 3.9-3.7 5-4.3-.6-.6-5-4.7-5-4.7 0 1-.1 3.5-.1 4.2h-3.4C49 19.1 35.5 8.5 35.5 6.8c0-1.7 1.1-.5 1.1-1.7 0-1.7-.6-1.1-1.1-1.7h-1.7c-2.8 1.1-.6 3.3-1.1 4.4-5.7 7.4-13 15.1-19.2 22.4zm34.3-.6H16.3l17.4-20c5.7 5 13.6 13.9 14.1 20z"/></symbol><symbol viewBox="0 0 30 20" id="mail" xmlns="http://www.w3.org/2000/svg"><path d="M2.3 0C1.1 0 0 1.1 0 2.5v15C0 18.9 1.1 20 2.3 20h25.3c1.3 0 2.3-1.1 2.3-2.5v-15c.1-1.4-1-2.5-2.2-2.5H2.3zm11.9 12.4l-10-8.9.6-.9c1 .7 1.9 1.5 2.2 1.8l7.7 6.6c.3.3.5.7.8 1.1.2-.4.5-.8.7-1.1l7.7-6.6c.2-.2 1.1-1 2.1-1.7l.6.9s-9.1 8.1-10.1 8.9c-.1.1-.1.1 0 0-.2.1-.9 1-2.3-.1zm2.3.1c-.1 0-.1 0 0 0zm5-.5l.5-.9c.8.7 4.7 4.4 4.7 4.4s1 1.1 0 1.6L21.5 12zM9.2 12L4 17.2c-1-.5 0-1.6 0-1.6s3.8-3.7 4.7-4.4l.5.8z"/></symbol><symbol viewBox="0 0 47 47" id="mail2" xmlns="http://www.w3.org/2000/svg"><path d="M21.8 26.9c2.1 1.5 3.2.3 3.4 0-.2.1-.2.1 0 0 1.4-1.1 15.1-12.4 15.1-12.4l-.8-1.2c-1.5 1-2.8 2-3.2 2.5L24.6 25c-.4.4-.8.9-1.1 1.5-.3-.6-.7-1.1-1.1-1.5l-11.6-9.1c-.5-.4-1.8-1.5-3.2-2.5l-.8 1.2 15 12.3zm10.9-.5l7.7 7.2c1.5-.7 0-2.3 0-2.3s-5.7-5.1-7-6.1l-.7 1.2zm-18.4 0l-.7-1.2c-1.3 1-7 6.1-7 6.1s-1.5 1.6 0 2.3l7.7-7.2zM3.7 8.4C1.6 8.4 0 10 0 12v23c0 2 1.6 3.7 3.7 3.7h39.7c2 0 3.7-1.6 3.7-3.7V12c0-2-1.6-3.7-3.7-3.7H3.7zm.1 1.7h39.4c1.2 0 2.1.9 2.1 2.1v22.7c0 1.2-.9 2.1-2.1 2.1H3.8c-1.2 0-2.1-.9-2.1-2.1V12.2c0-1.2.9-2.1 2.1-2.1z"/></symbol><symbol viewBox="0 0 80 80" id="mail3" xmlns="http://www.w3.org/2000/svg"><path d="M38.8 41.9c2 1.4 3.1.3 3.3 0-.1.1-.1.1 0 0 1.4-1.1 14.4-11.8 14.4-11.8l-.9-1.1c-1.4 1-2.7 2-3.1 2.4l-11 8.7c-.4.4-.8.9-1.1 1.4-.3-.6-.7-1.1-1.1-1.4l-11-8.7c-.4-.4-1.7-1.4-3.1-2.4l-.8 1.2 14.4 11.7zm10.4-.5l7.4 6.8c1.4-.6 0-2.2 0-2.2s-5.5-4.9-6.7-5.8l-.7 1.2zm-17.6 0l-.7-1.2c-1.2 1-6.7 5.8-6.7 5.8s-1.4 1.5 0 2.2l7.4-6.8zM21.5 24.2c-1.9 0-3.5 1.6-3.5 3.5v21.8c0 1.9 1.6 3.5 3.5 3.5h37.8c1.9 0 3.5-1.6 3.5-3.5V27.7c0-1.9-1.6-3.5-3.5-3.5H21.5zm.1 1.6h37.6c1.1 0 2 .9 2 2v21.6c0 1.1-.9 2-2 2H21.6c-1.1 0-2-.9-2-2V27.8c0-1.1.9-2 2-2z"/></symbol><symbol viewBox="0 0 63 77" id="marker" xmlns="http://www.w3.org/2000/svg"><path class="ccsvg-marker-shape" d="M12.5 50.6c-10.3-10.4-10.3-27.4 0-37.8 10.3-10.4 26.9-10.4 37.1 0 10.3 10.4 10.3 27.4 0 37.8s-26.9 10.5-37.1 0zM53.8 9.4a31.21 31.21 0 0 0-44.6 0c-12.3 12.5-12.3 32.8 0 45.4L31.5 77l22.2-22.2c12.4-12.6 12.4-32.9.1-45.4z"/><path class="ccsvg-marker-circle" d="M4.8 31.7C4.8 16.9 16.5 4.9 31 4.9s26.3 12 26.3 26.8S45.5 58.5 31 58.5c-14.5-.1-26.2-12-26.2-26.8z" opacity=".7" fill="#fff"/></symbol><symbol viewBox="0 0 130 130" id="masks" xmlns="http://www.w3.org/2000/svg"><path d="M46.3 41.6c0-1.5-3-2.8-4.5-2.8s-4.5 1.2-4.5 2.8c0 1.5 2.9 1.1 4.5 1.1s4.5.4 4.5-1.1zm14.2-2.8C59 38.8 56 40 56 41.6c0 1.5 3 1.1 4.5 1.1s4.5.5 4.5-1.1-3-2.8-4.5-2.8zM39.9 54.7s3.4 5.8 11.2 5.8c7.8 0 11.2-5.8 11.2-5.8s-3.8 1.5-11.2 1.5c-7.4.1-11.2-1.5-11.2-1.5zm32.4-29.5c2 64-46.3 64-44.4 0 13.9 4.1 30.7 4.1 44.4 0zm3.4-2.2l-2.3-1.4c-14.1 4.8-32.3 4.8-46.4 0L24.7 23c-3.4 71.1 54.3 71.1 51 0zm29.9 28.6c-11.7 45.6-39.7 51.9-46.3 28.1-1 .5-2 .9-3 1.3 7.9 26.6 40.9 20.1 53.2-30.8l-1.8-1.9c-9 .8-19-.4-28.2-3.2-.2 1.1-.4 2.1-.6 3.1 8.7 2.6 18 3.9 26.7 3.4zm-29.7 9.8c.3-1.2-1.1-2.6-2.5-3.3-.5 1.2-1 2.4-1.5 3.5 1.5.4 3.6 1.1 4-.2zm14.4.6c-1.5-.4-4.7.2-5.1 1.7-.4 1.5 2.5 1.7 4 2.1 1.5.4 4.2 1.5 4.7 0s-2.1-3.4-3.6-3.8zM63.2 78.3s4.1-.6 11.3 1.1c7.2 1.8 10.4 4.1 10.4 4.1s-1.6-6.4-9.2-8.2c-7.7-1.8-12.5 3-12.5 3z"/></symbol><symbol viewBox="0 0 42 34" id="menu" xmlns="http://www.w3.org/2000/svg"><path d="M0 0h42v6H0zm0 14h42v6H0zm0 14h42v6H0z"/></symbol><symbol viewBox="0 0 20 12" id="menu-overflow" xmlns="http://www.w3.org/2000/svg"><path d="M0 12h20v-2H0v2zm0-5h20V5H0v2zm0-7v2h20V0H0z"/></symbol><symbol viewBox="0 0 24 24" id="metro" xmlns="http://www.w3.org/2000/svg"><path d="M12 24C5.372 24 0 18.627 0 12 0 5.372 5.372-.001 12-.001c6.627 0 12 5.373 12 12.001 0 6.627-5.373 12-12 12zm0-23C5.925 1 1 5.924 1 12c0 6.075 4.925 11 11 11s11-4.925 11-11c0-6.076-4.925-11-11-11zm3.243 8.111L13.238 17h-1.964L9.276 9.111V17H7.381V6.979h3.053l1.832 6.835 1.812-6.835h3.06V17h-1.895V9.111z" class="cgcls-1"/></symbol><symbol viewBox="0 0 62 62" id="moon" xmlns="http://www.w3.org/2000/svg"><path d="M25.9 11.2C18.2 26.7 28.6 46.7 46.2 48 22.3 63.9-.2 23 25.9 11.2zM29 9.8l-1.2-1.5c-34.1 11.6-5.9 62.5 22 39.6l-.7-1.8C30.5 46.9 19 25.1 29 9.8z"/></symbol><symbol viewBox="0 0 32 32" id="more" xmlns="http://www.w3.org/2000/svg"><path d="M12.8 0v12.8H0v6.4h12.8V32h6.4V19.2H32v-6.4H19.2V0h-6.4z"/></symbol><symbol viewBox="0 0 102 102" id="multiple" xmlns="http://www.w3.org/2000/svg"><path d="M73 32.7c0-2.4-1.5-4.7-3.9-4.7H21v34c0 2.4 2.5 4 4.9 4H73V32.7zM71 64H26c-1.4 0-3-.8-3-2.2V30h46c1.4 0 2 1.4 2 2.8V64z"/><path d="M79 37v35H30.2c.8 2 2.1 2 3.7 2H81V40.7c0-1.6 0-2.9-2-3.7z"/><path d="M77 36.7c0-1.5 0-2.9-2-3.7v35H26.2c.8 2 2.1 2 3.7 2H77V36.7z"/></symbol><symbol viewBox="0 0 130 130" id="museum" xmlns="http://www.w3.org/2000/svg"><path d="M71 46.5l-1.6-1.6-4 4-3.9-3.9-1.6 1.6 5.5 5.5 5.6-5.6zm0 14.4l-1.6-1.6-4 4-3.9-3.9-1.6 1.6 5.5 5.5 5.6-5.6zm3.3 0l5.5 5.5 5.6-5.6-1.6-1.6-4 4-3.9-3.9-1.6 1.6zm-17.9 0l-1.6-1.6-4 4-3.9-3.9-1.6 1.6 5.5 5.5 5.6-5.6zm7.2-7.1L62 52.2l-4 4-3.9-3.9-1.6 1.6 5.5 5.5 5.6-5.6zm3.8 0l5.5 5.5 5.6-5.5-1.6-1.6-4 4-3.9-3.9-1.6 1.5zm-3.8 14.1L62 66.3l-4 4-3.9-3.9-1.6 1.6 5.5 5.5 5.6-5.6zm-14.3 0l-1.6-1.6-4 4-3.9-3.9-1.6 1.6 5.5 5.5 5.6-5.6zm29.1 0l-1.6-1.6-4 4-3.9-3.9-1.6 1.6 5.5 5.5 5.6-5.6zm2.9 0l5.5 5.5 5.6-5.5-1.6-1.6-4 4-3.9-3.9-1.6 1.5zM62 80.8l-4 4-3.9-3.9-1.6 1.6L58 88l5.6-5.6-1.6-1.6zm14.8 0l-4 4-3.9-3.9-1.6 1.6 5.5 5.5 5.6-5.6-1.6-1.6zm14 0l-4 4-3.9-3.9-1.6 1.6 5.5 5.5 5.6-5.6-1.6-1.6zm14.3 0l-4 4-3.9-3.9-1.6 1.6 5.5 5.5 5.6-5.6-1.6-1.6zM71 75.3l-1.6-1.6-4 4-3.9-3.9-1.6 1.6 5.5 5.5 5.6-5.6zm14.4 0l-1.6-1.6-4 4-3.9-3.9-1.6 1.6 5.5 5.5 5.6-5.6zm3.1 0l5.5 5.5 5.6-5.5-1.6-1.6-4 3.9-3.9-3.9-1.6 1.6zm-37.7 2.3l-3.9-3.9-1.6 1.6 5.5 5.5 5.6-5.5-1.6-1.6-4 3.9zm-3.1 3.2l-4 4-3.9-3.9-1.6 1.6 5.5 5.5 5.6-5.6-1.6-1.6zm-13.9 0l-4 4-3.9-3.9-1.6 1.6 5.5 5.5 5.6-5.6-1.6-1.6zm8.3-5.5l-1.6-1.6-4 4-3.9-3.9-1.6 1.5 5.5 5.5 5.6-5.5zm23.3 16.8l-3.9-3.9-1.6 1.6 4.9 4.9H51.4l5-4.9-1.6-1.6-4 4-3.9-3.9-1.6 1.6 4.9 4.9h-13l5-4.9-1.6-1.6-4 4-3.9-3.9-1.6 1.6 4.9 4.9H22.9l5-4.9-1.6-1.6-4 4-3.9-3.9-1.6 1.6 4.9 4.9H6.8l58.8-57.9L123.8 95h-15l5-4.9-1.6-1.6-4 4-3.9-3.9-1.6 1.6 4.9 4.9H94.7l5-4.9-1.7-2.1-4 4-3.9-3.9-1.6 1.6 4.9 4.9h-13l5-4.9-1.6-1.6-4 4-3.9-3.9-1.6 1.6 4.9 4.9H66.1l5-4.9-1.6-1.6-4.1 3.8zM6.3 95.6h-.4l.4-.4v.4zm59.3-63.7L0 97.9h130l-64.4-66z"/></symbol><symbol viewBox="0 0 60 60" id="notredame" xmlns="http://www.w3.org/2000/svg"><path d="M13.8 9.1c0-1.2 1.1-1.3 1.1-1.3s1.1.1 1.1 1.3v10.8h-2.3V9.1zm3.7 0c0-1.2 1.1-1.3 1.1-1.3s1.1.1 1.1 1.3v10.8h-2.3V9.1zm22.4 0C39.9 8 41 7.8 41 7.8s1.1.1 1.1 1.3v10.8h-2.3V9.1zm3.7 0c0-1.2 1.1-1.3 1.1-1.3s1.1.1 1.1 1.3v10.8h-2.3V9.1zM49.8 26V2.4c0-.1-.1-.2-.2-.2h-14c-.1 0-.2.1-.2.2v17.4c0 .1-.1.2-.2.2h-3.6c-.1 0-.2-.1-.2-.2L30 0l-1.6 19.8c0 .1-.1.2-.2.2h-3.6c-.1 0-.2-.1-.2-.2V2.4c0-.1-.1-.2-.1-.2h-14c-.1 0-.2.1-.2.2V26h39.7zm-2.6 33.7h-8.8v-4.5c.6-5.3 4.4-5.9 4.4-5.9s4.4 1.4 4.4 5.9v4.5zm-11.8 0h-3.3v-4.4c0-.9-.9-1-.9-1s-.9.1-.9 1v4.4h-.7v-4.4c0-.9-.9-1-.9-1s-.9.1-.9 1v4.4h-3.3V53c.7-6.4 5.4-7.3 5.4-7.3s5.3 1.7 5.4 7.2v6.8zm-14.1 0h-8.8v-4.5c.5-5.3 4.4-5.9 4.4-5.9s4.4 1.4 4.4 5.9v4.5zM49.8 43H10.2v17h39.7V43zm-24.9-9.2c-.3-.3-.2-.5.2-.5s.5-.3.3-.7c-.2-.3-.1-.5.3-.5.4.1.6-.2.5-.6-.1-.4.1-.6.4-.4.4.2.6 0 .6-.4s.2-.5.5-.3.6.1.7-.3c.1-.4.3-.5.5-.1.2.3.6.3.7-.1.2-.4.4-.4.6 0 .2.4.5.4.7.1.2-.3.5-.2.5.1.1.4.4.5.7.3.3-.2.5-.1.5.3s.2.6.6.4c.4-.2.5 0 .4.4-.1.4.1.6.5.6.4-.1.5.2.3.5s-.1.6.3.7c.4 0 .5.3.2.5-.3.3-.2.6.1.7.4.1.4.4 0 .6-.4.2-.4.5 0 .7.3.2.3.5-.1.6-.4.1-.5.4-.2.7.3.3.2.5-.2.5s-.6.3-.4.6c.2.3 0 .5-.4.4-.4-.1-.6.1-.5.5.1.4-.1.5-.5.3-.3-.2-.6 0-.6.3 0 .4-.2.5-.5.2s-.6-.2-.7.2c-.1.4-.4.4-.6.1-.2-.3-.5-.3-.7 0-.2.3-.5.3-.6-.1-.1-.4-.4-.5-.7-.2-.3.3-.5.2-.5-.2s-.3-.6-.6-.3c-.3.2-.5.1-.5-.3.1-.4-.1-.6-.5-.5-.4.1-.5-.1-.4-.4.2-.4 0-.6-.4-.6s-.5-.2-.2-.5.2-.6-.2-.7c-.4-.1-.4-.3-.1-.6.3-.2.3-.5 0-.7-.4-.2-.3-.4 0-.6.2-.1.3-.4 0-.7zm-11.1 2.7c0-1.1 1.1-1.3 1.1-1.3s1.1.1 1.1 1.3v4.9h1.5v-4.9c0-1.1 1.1-1.3 1.1-1.3s1.1.1 1.1 1.3v4.9h20.1v-4.9c0-1.1 1.1-1.3 1.1-1.3s1.1.1 1.1 1.3v4.9h1.5v-4.9c0-1.1 1.1-1.3 1.1-1.3s1.1.1 1.1 1.3v4.9h3.9V27.6H10.2v13.8h3.6v-4.9z"/></symbol><symbol viewBox="0 0 80 80" id="nouveautes" xmlns="http://www.w3.org/2000/svg"><path d="M65.6 34.6l-2.9-6.5h-1.6l-2.9 6.5-6.2 2.9V39l6.4 2.9 2.9 6.5h1.6l2.9-6.5L72 39v-1.6l-6.4-2.8zm-1.4.9l.5.5 4.9 2.2-4.9 2.2-.5.5-2.1 5-2.1-5-.5-.5-4.9-2.2 4.9-2.2.5-.5 2.1-5 2.1 5zm-34.8 19l-2-4.5h-1.6l-1.9 4.5-4.4 2v1.6l4.4 2 1.9 4.5h1.6l1.9-4.5 4.4-2v-1.6l-4.3-2zm-1.5 1.1l.5.5 3 1.4-3 1.4-.5.5-1.3 3-1.3-3-.5-.5-3-1.4 3-1.4.5-.5 1.3-3 1.3 3zm21.5-33.5l-1.3-3h-.7l-1.4 3-3 1.3v.7l3 1.3 1.3 3h.7l1.3-3 3-1.3v-.7l-2.9-1.3zm-.8.5l.2.2 2.2 1-2.2 1-.2.2-1 2.2-1-2.2-.2-.2-2.2-1 2.2-1 .2-.2 1-2.2 1 2.2zm1.5 30L49 50.1h-.8l-1 2.5-2.5 1.1v.7l2.5 1.1 1.1 2.5h.8l1.1-2.5 2.5-1.1v-.7l-2.6-1.1zm-.6.5l.2.2 1.8.8-1.8.7-.2.2-.7 1.8L48 55l-.2-.2-1.8-.7 1.8-.8.2-.2.7-1.8.8 1.8zM25.6 21.8l-2.8-6.5h-1.6l-2.9 6.5-6.3 2.8v1.6l6.4 2.9 2.9 6.5h1.6l2.8-6.5 6.4-2.9v-1.6l-6.5-2.8zm-1.5 1l.5.5 4.9 2.2-4.9 2.2-.5.5-2.1 5-2.2-5-.5-.5-4.9-2.2 4.9-2.2.5-.5 2.2-5 2.1 5zm14.3 14.5l-1.5-3.4h-1.2l-1.5 3.4-3.5 1.5V40l3.4 1.6 1.5 3.4h1.2l1.5-3.4 3.4-1.6v-1.2l-3.3-1.5zm-1.1.7l.4.4 2.3 1-2.3 1-.4.4-1 2.3-1-2.3-.4-.4-2.3-1 2.3-1 .4-.4 1-2.3 1 2.3z"/></symbol><symbol viewBox="0 0 60 60" id="pantheon" xmlns="http://www.w3.org/2000/svg"><path d="M30.3 21.3l12.6 5v-5.8c-4.1-2.1-12.9-2.2-12.8-2.2-7 0-11 1.4-12.8 2.3v5.7l12.6-5h.4zm-.2 1.2L11.3 30h37.6l-18.8-7.5zm8.4-7.8c-1.1-3.1-3.3-6.4-6.1-7.2.6-1 .3-1.6 0-2-.1-.2-.3-.4-.5-.5h.3V1.8C31.5 1 30 .1 30 0c-.2.3-1.3 1-2 1.8V5h.3c-.2.1-.4.3-.5.5-.3.4-.6.9 0 2-2.9.8-5.1 4.1-6.1 7.3 1.8-.9 4.5-1.8 8.5-1.8 3.9 0 6.6.8 8.3 1.7zm-15.6 3.1c.4-.1.8-.1 1.3-.2l.7-.1c1.6-.2 3.3-.3 5.3-.3.4 0 5 0 9.1.9 0-.5-.1-1.1-.2-1.7-1.5-1-4.3-2.2-8.8-2.2-4.7 0-7.5 1.3-9 2.2-.2.6-.3 1.2-.3 1.7.4-.1.9-.2 1.3-.3h.6zm33.4 14.1H3.7l.9 2.1h49.9l1.8-2.1zm-51.6 3v20.9h49.9V34.9h-2.4l.3 20.2h-2.2l.3-20.2h-7l.3 20.2h-2.2l.3-20.2h-7l.3 20.2H33l.3-20.2h-7l.3 20.2h-2.2l.3-20.2h-7l.3 20.2h-2.2l.2-20.2H9l.3 20.2H7.1l.3-20.2H4.7zm0 24.9h49.9v-2.5H4.7v2.5z"/></symbol><symbol viewBox="0 0 24 24" id="parking" xmlns="http://www.w3.org/2000/svg"><path d="M12 24C5.373 24 0 18.627 0 12 0 5.372 5.373 0 12 0c6.628 0 12 5.372 12 12 0 6.627-5.372 12-12 12zm0-23C5.925 1 1 5.925 1 12s4.925 11 11 11 11-4.925 11-11S18.075 1 12 1zm3.509 11.601a2.93 2.93 0 0 1-1.049.475c-.483.096-1.183.144-2.099.144h-1.319V17H9.019V6.979h3.247c1.23 0 2.032.05 2.406.15.574.15 1.055.477 1.442.981.388.504.581 1.154.581 1.952 0 .615-.111 1.132-.335 1.551-.223.42-.507.749-.851.988zm-1.22-3.414a1.403 1.403 0 0 0-.813-.445c-.242-.045-.727-.068-1.456-.068h-.978v2.844h1.107c.798 0 1.331-.053 1.6-.158.269-.104.48-.268.632-.492.153-.223.229-.483.229-.779 0-.365-.107-.665-.321-.902z" class="cocls-1"/></symbol><symbol viewBox="0 0 130 130" id="pass" xmlns="http://www.w3.org/2000/svg"><path d="M81.4 21.9L48.7 53.6l39.2-14.5 6.4 17 10.8-10.9-23.7-23.3zM86 45L32.7 64.7l2.2 5.9h51v10.3l11.8-4.4L86 45zm-4 29.6H24.8v33.5H82V74.6z"/></symbol><symbol viewBox="0 0 102 102" id="people" xmlns="http://www.w3.org/2000/svg"><path d="M51 66.3c-1.1 0-3.1-1.1-5-2.8v-.2h-.2c-2-2-3.8-4.7-3.8-7.5 0-.7.7-1.4.8-2 1.9-.7 3.4-2.4 4.1-4.5 1.8 1.9 5.5 3.3 9.8 3.3.7 0 1.4 0 2.1-.1.3 1.1 1.2 2.2 1.2 3.4 0 2.8-1.8 5.5-3.8 7.5H56v.2c-1.9 1.6-3.9 2.7-5 2.7zm0-22c-.4 0-.9 0-1.3.1-.2 0-.5.1-.7.1h-.1c-.5.1-1 .3-1.5.5-.1 0-.2.1-.4.2-.4.2-.7.3-1 .5-2.2 1.4-3.9 3.8-4.7 6.6-.2-.3-.7 4.6.1 6.3.7 2.1 2 4.1 3.6 5.5v4.1s-13 2.8-13 8v5h38v-5c0-5.4-13-8-13-8v-4.1c2.2-2.1 4-5.1 4-8.4 0-6.2-4.5-11.4-10-11.4zm-4 21.8c1.8 1.4 2.6 1.3 4 1.3s2.3-.8 4-2.3v4.3s12.8 1.8 13 7v3H34v-3c.3-5.3 13-7 13-7v-3.3zM19 43.3c-1.1 0-3.1-1.1-5-2.8v-.2h-.2c-2-2-3.8-4.7-3.8-7.5 0-.7.7-1.4.8-2 1.9-.7 3.4-2.4 4.1-4.5 1.8 1.9 5.5 3.3 9.8 3.3.7 0 1.4 0 2.1-.1.3 1.1 1.2 2.2 1.2 3.4 0 2.8-1.8 5.5-3.8 7.5H24v.2c-1.9 1.6-3.9 2.7-5 2.7zm0-22c-.4 0-.9 0-1.3.1-.2 0-.5.1-.7.1h-.1c-.5.1-1 .3-1.5.5-.1.1-.2.1-.4.2-.4.2-.7.3-1 .5-2.2 1.4-3.9 3.8-4.7 6.6-.2-.3-.7 4.6.1 6.3.7 2.1 2 4.1 3.6 5.5v4.1S0 48 0 53.2v5h38v-5c0-5.4-13-8-13-8v-4.1c2.2-2.1 4-5.1 4-8.4 0-6.2-4.5-11.4-10-11.4zm-4 21.8c1.8 1.4 2.6 1.3 4 1.3s2.3-.8 4-2.3v4.3s12.8 1.8 13 7v3H2v-3c.3-5.3 13-7 13-7v-3.3zM83 43.3c-1.1 0-3.1-1.1-5-2.8v-.2h-.2c-2-2-3.8-4.7-3.8-7.5 0-.7.7-1.4.8-2 1.9-.7 3.4-2.4 4.1-4.5 1.8 1.9 5.5 3.3 9.8 3.3.7 0 1.4 0 2.1-.1.3 1.1 1.2 2.2 1.2 3.4 0 2.8-1.8 5.5-3.8 7.5H88v.2c-1.9 1.6-3.9 2.7-5 2.7zm0-22c-.4 0-.9 0-1.3.1-.2 0-.5.1-.7.1h-.1c-.5.1-1 .3-1.5.5-.1.1-.2.1-.4.2-.4.2-.7.3-1 .5-2.2 1.4-3.9 3.8-4.7 6.6-.2-.3-.7 4.6.1 6.3.7 2.1 2 4.1 3.6 5.5v4.1s-13 2.8-13 8v5h38v-5c0-5.4-13-8-13-8v-4.1c2.2-2.1 4-5.1 4-8.4 0-6.2-4.5-11.4-10-11.4zm-4 21.8c1.8 1.4 2.6 1.3 4 1.3s2.3-.8 4-2.3v4.3s12.8 1.8 13 7v3H66v-3c.3-5.3 13-7 13-7v-3.3z"/></symbol><symbol viewBox="0 0 20 20" id="pinterest" xmlns="http://www.w3.org/2000/svg"><path d="M19.7 10c0 5.3-4.3 9.7-9.7 9.7-.2 0-1.8-.2-2.6-.4.8-1.4 1.1-3 1.5-4.5.5.5 1.7 1.1 2.4 1.1 3.8 0 5.3-4.1 5.3-6.6 0-4-3.4-5.7-6.3-5.7-3.3-.1-6.9 2-6.9 6.1 0 .2-.1.8.1 1.2.1.4.2.8.5 1.2.2.5 1.1 1.3 1.6 1.3s.6-1.2.6-1.2c0-.6-.8-1.2-.8-2.4 0-2.9 2.3-4.5 4.7-4.5 2.4 0 4 1.2 4 3.7 0 1.4-.6 5-3.1 5-1 0-1.4-.6-1.4-1.4 0-.2.8-3.6.8-3.8 0-.8-.4-1.5-1.4-1.5-1.5 0-1.9 1.7-1.9 2.5 0 .2.3 1.4.3 1.6 0 .2-1 3.8-1.4 5.7-.1.5 0 1.2 0 1.7-1.8-.6-4.5-3.4-5-5.2-.2-.8-.6-2.4-.6-2.6V8.9C1 3.1 5.9.3 10 .3c5.5 0 9.7 4.5 9.7 9.7z"/></symbol><symbol viewBox="0 0 43 43" id="plan" xmlns="http://www.w3.org/2000/svg"><path d="M14.5 26l6-5 7 5-7-17-6 17zM33.9 5.2c-6.8-7-17.9-7-24.7 0-6.8 7-6.8 18.3 0 25.3L21.5 43l12.4-12.4c6.8-7 6.8-18.4 0-25.4zM10.5 28.7c-5.9-6.1-5.9-15.9 0-22C16.5.6 26 .6 32 6.7c5.9 6.1 5.9 15.9 0 22-6 6-15.5 6-21.5 0z"/></symbol><symbol viewBox="-2 4 22 22" id="plane" xmlns="http://www.w3.org/2000/svg"><path d="M19 4c-.6 0-1.1.2-1.6.4-.6.2-1.3.5-1.9.9-.2.1-.5.3-.7.5-1.1 1-2.2 2.2-3.3 3.2L0 7.3c-.3 0-.8.3-.8.7v.4s0 .1.1.2c.1.3.6.5 1 .7.3.2.7.4 1 .6.2.1.3.2.5.3l.6.3c.2.1.5.3.7.4.3.2.6.3.8.5.3.2.7.4 1 .6.8.5 1.7 1 2.5 1.5l-4 4c-.3.2-.5.5-.8.7l-3.7-.6c-.3 0-.8.4-.8.7v.3l.1.2c.1.2.4.3.6.4.2.1.5.2.7.4.4.2.9.4 1.3.6.3.2.7.3 1 .5.3.1.6.2.9.4l.1.1c.7 1 1 2 1.5 3 .2.3.3.7.5 1 .1.6.4.8.8.8s.8-.3.9-.9l-.6-3.6 4.7-4.8c1.3 2.3 2.6 4.6 4 6.9.3.6.5 1.2 1.1 1.2.4 0 .9-.4.9-.9L15 12.5c1-1.1 2.2-2.2 3.2-3.3.2-.2.4-.4.5-.7.1-.2.3-.5.4-.8.2-.4.4-.8.5-1.3.2-.4.4-.9.4-1.4 0-.7-.2-1-1-1zm0 1.1c-.1.5-.2.9-.4 1.4-.1.3-.3.7-.5 1-.2.3-.3.6-.5.9-.3.3-.7.7-1 1.1l-2.4 2.4c-.1.1-.2.4-.2.5l1.6 10.9c-.3-.4-.5-.9-.8-1.3-.2-.4-.4-.7-.6-1.1-.2-.3-.4-.6-.5-.9-.2-.3-.3-.5-.5-.8-.1-.2-.3-.5-.4-.7-.3-.5-.6-1.1-.9-1.6-.4-.7-.6-1-1.2-1-.2 0-.5 0-.7.2-.9.8-1.8 1.8-2.7 2.7l-2.1 2.1c-.1 0-.2 0-.2.1-.1.1-.1.3-.1.5l.4 2.5c-.6-1.1-1.1-2.2-1.7-3.3-.1-.3-.4-.4-.6-.5-1-.5-2-1-3-1.4.1 0 2.2.4 2.5.4.1 0 .3 0 .4-.1.3-.1.7-.6 1-.9l.7-.7.7-.7L8.1 14c.1-.1.2-.3.2-.5v-.3s-.1-.1-.1-.2c-.1-.4-.7-.7-1-.9C5 10.9 2.9 9.6.7 8.4L11.5 10c.3 0 .6-.1.9-.5.4-.4.9-.8 1.3-1.3.6-.6 1.3-1.3 2-1.9.1-.1.3-.2.4-.3.5-.3 1-.5 1.5-.8.4 0 .9-.1 1.4-.1z"/></symbol><symbol viewBox="0 0 62 62" id="price" xmlns="http://www.w3.org/2000/svg"><path d="M40.1 19.9c0 1.7 1.3 3 3 3s3-1.3 3-3-1.3-3-3-3-3 1.3-3 3zm-6 31l18-18-.2-18.3c0-2.5-2-4.5-4.5-4.5l-18.3-.2-17.9 18c-1.7 1.7-1.7 4.4.1 6.2L28 50.8c1.7 1.7 4.5 1.7 6.1.1zm16-18.9L32.8 49.3c-1 1-2.6 1-3.6 0L12.7 32.7c-1-1-1-2.6 0-3.5L30 11.8h16l1.3.3c1.4 0 2.6 1.2 2.6 2.6l.2.5V32z"/></symbol><symbol viewBox="0 0 29 27" id="print" xmlns="http://www.w3.org/2000/svg"><path d="M26.4 5H23V0H6v5H2.6C1.2 5 0 6.2 0 7.6v9.7C0 18.8 1.2 20 2.6 20H6v7h17v-7h3.4c1.5 0 2.6-1.2 2.6-2.6V7.6C29 6.2 27.8 5 26.4 5zM7 1h15v4H7V1zm15 25H7V16h15v10z"/><path d="M9 18h11v2H9zM9 22h11v2H9z"/></symbol><symbol viewBox="0 0 80 80" id="rotation" xmlns="http://www.w3.org/2000/svg"><path d="M21 41c0 9.9 8.1 18 18 18 6.5 0 12.2-3.5 15.4-8.6L58 54v-9h-9l3.9 3.9C50.2 53.7 45 57 39 57c-8.8 0-16-7.2-16-16h-2zm37-2c0-9.9-8.1-18-18-18-6.5 0-12.2 3.5-15.4 8.6L21 26v9h9l-3.9-3.9C28.8 26.3 34 23 40 23c8.8 0 16 7.2 16 16h2z"/></symbol><symbol viewBox="0 0 60 60" id="sacrecoeur" xmlns="http://www.w3.org/2000/svg"><path d="M29.5 4c.1 0 .9 0 1.6.3 0-1-.1-2-1.3-3V.7h.3V.3h-.3V0h-.4v.3h-.3v.3h.3v.6c-1.1 1-1.2 2-1.3 3 .7-.2 1.4-.2 1.4-.2zm9.6 16.8c-1.4-6.5-4.5-7.9-6.9-9.3-.6-.3-1.1-1.4-1.1-2.1V4.9c-.4-.2-1.3-.3-1.6-.3 0 0-.7 0-1.3.2v4.6c0 .7-.6 1.8-1.1 2.1-2.4 1.4-5.5 2.9-6.9 9.5 3-1 7.6-1.5 9.8-1.5 2 .1 6.1.4 9.1 1.3zm4.1 1.7c.5-.1 1.1-.1 1.1-.1s.6 0 1.1.1c-.1-1.3-.7-1.7-.9-1.9V20h.3v-.4h-.3v-.3h-.3v.3h-.3v.4h.3v.6c-.3.2-.9.6-1 1.9zm-28.5 0c.5-.1 1.1-.1 1.1-.1s.6 0 1.1.1c-.1-1.3-.7-1.7-.9-1.9V20h.3v-.3H16v-.3h-.3v.3h-.3v.3h.3v.5c-.3.3-.9.7-1 2zm4.4 15h21v.9h-21v-.9zm15.6 10.3V43c0-.7.6-1.3 1.3-1.3.7 0 1.3.6 1.3 1.3v4.8h-2.6zm-6.3-2.7v-4.8c0-.7.6-1.3 1.3-1.3.7 0 1.3.6 1.3 1.3v4.8h-2.6zM22 47.8V43c0-.7.6-1.3 1.3-1.3.7 0 1.3.6 1.3 1.3v4.8H22zm18.1 2.1h-21v-1.7h21v1.7zm-1.9 9.8h-4.5v-4.2c0-1.2 1-2.2 2.3-2.2 1.2 0 2.2 1 2.2 2.2v4.2zm-6.3 0h-4.5v-4.2c0-1.2 1-2.2 2.2-2.2 1.2 0 2.3 1 2.3 2.2v4.2zm-6.4 0H21v-4.2c0-1.2 1-2.2 2.3-2.2 1.2 0 2.2 1 2.2 2.2v4.2zm3.3-29.5c0-.5.4-.9.9-.9s.9.4.9.9v3.3h-1.8v-3.3zM15 41.5h-1.8v-3.3c0-.5.4-.9.9-.9s.9.4.9.9v3.3zm29.5-3.2c0-.5.4-.9.9-.9s.9.4.9.9v3.3h-1.8v-3.3zm-4.4 5.2h10.1v-6.9-.5c-2.3-1.2-6.1-1.2-6.3-1.2-1.4 0-2.7.1-3.8.5l-.2.1-.1-.1-7.8-3.2V29l-2.3-1.3-2.4 1.3v3.2L20.5 35l-1.8.5-.2-.1c-1.1-.3-2.4-.4-3.8-.4 0 0-2.9.1-4.9.8V43.6h9.3v.9H9.8v5.6h9.3v1.7H9.8V60H50.1v-8.4h-10v-1.7h10.1v-5.6H40.1v-.8zm-21.4-8.7l.1.1 1.5-.4 1.7-.7v-4.4c0-.7.6-1.3 1.3-1.3.7 0 1.3.6 1.3 1.3v3.3l2.1-.9v-3.1l2.8-1.6h.3l2.8 1.6v3.1l2.1.9v-3.3c0-.7.6-1.3 1.3-1.3.7 0 1.3.6 1.3 1.3v4.4l2.6 1.1c1.3-.4 2.6-.5 4-.5.2 0 3.8 0 6.3 1.1-.2-5.3-2-7.2-4.8-8.8v-3.4c-.3-.1-.8-.1-1.1-.1-.2 0-.8 0-1.1.1v3.4c-1.4.8-2.5 1.6-3.3 2.9 0-2.5-.2-4.6-.4-6.4-2.1-.7-6.2-1.5-9.5-1.5-3.7 0-8.5.9-10.2 1.8-.2 1.5-.3 3.2-.4 5.2-.7-.8-1.6-1.4-2.6-2v-3.4c-.3-.2-.8-.3-1.1-.3-.2 0-.8 0-1.1.1v3.4c-2.7 1.5-4.5 3.4-4.8 8.5 2-.7 4.7-.7 4.8-.7 1.6 0 2.9.1 4.1.5z"/></symbol><symbol viewBox="0 0 38 38" id="search" xmlns="http://www.w3.org/2000/svg"><path d="M23.3 25.8l9.3 9.6c.9.9 2.3.9 3.2-.1.9-.9.9-2.4.1-3.3l-9.6-9.9c1.1-1.9 1.7-4.2 1.7-6.6C28 8.1 22 2 14.7 2S1.5 8.1 1.5 15.5C1.5 23 7.4 29 14.7 29c3.3 0 6.3-1.2 8.6-3.2zM3.5 15.5C3.5 9.2 8.5 4 14.7 4S26 9.2 26 15.5C26 21.9 21 27 14.7 27S3.5 21.9 3.5 15.5z"/></symbol><symbol viewBox="0 0 15 14" id="star" xmlns="http://www.w3.org/2000/svg"><path d="M7.501 0l1.964 5.09 5.541.26-4.327 3.406 1.46 5.251-4.638-2.985-4.639 2.985 1.461-5.251L-.004 5.35l5.541-.26L7.501 0z"/></symbol><symbol viewBox="0 0 170 170" id="sun" xmlns="http://www.w3.org/2000/svg"><path d="M48.2 85c0 20.4 16.5 36.8 36.8 36.8 20.4 0 36.8-16.5 36.8-36.8 0-20.3-16.5-36.8-36.8-36.8-20.3 0-36.8 16.5-36.8 36.8zm7.3 0c0-16.3 13.2-29.5 29.5-29.5s29.5 13.2 29.5 29.5-13.2 29.5-29.5 29.5S55.5 101.3 55.5 85zM86.4 0c-2.3 0-4.3 1.9-4.3 4.3v28.3c0 2.3 1.9 4.3 4.3 4.3 2.3 0 4.3-1.9 4.3-4.3V4.3c0-2.4-1.9-4.3-4.3-4.3zm46.8 86.4c0 2.3 1.9 4.3 4.3 4.3h28.3c2.3 0 4.3-1.9 4.3-4.3 0-2.3-1.9-4.3-4.3-4.3h-28.3c-2.4.1-4.3 2-4.3 4.3zM83.6 170c2.3 0 4.3-1.9 4.3-4.3v-28.3c0-2.3-1.9-4.3-4.3-4.3-2.3 0-4.3 1.9-4.3 4.3v28.3c0 2.4 1.9 4.3 4.3 4.3zM36.8 83.6c0-2.3-1.9-4.3-4.3-4.3H4.3C2 79.3 0 81.2 0 83.6c0 2.3 1.9 4.3 4.3 4.3h28.3c2.3-.1 4.2-2 4.2-4.3zm103.9-62.8c-1.8-1.5-4.5-1.3-6 .5L116.5 43c-1.5 1.8-1.3 4.5.5 6s4.5 1.3 6-.5l18.2-21.7c1.6-1.8 1.3-4.5-.5-6zM121 117.1c-1.5 1.8-1.3 4.5.5 6l21.7 18.2c1.8 1.5 4.5 1.3 6-.5s1.3-4.5-.5-6L127 116.5c-1.8-1.5-4.5-1.2-6 .6zm-91.7 32.1c1.8 1.5 4.5 1.3 6-.5L53.5 127c1.5-1.8 1.3-4.5-.5-6s-4.5-1.3-6 .5l-18.2 21.7c-1.6 1.8-1.3 4.5.5 6zM49 52.9c1.5-1.8 1.3-4.5-.5-6L26.8 28.8c-1.8-1.5-4.5-1.3-6 .5s-1.3 4.5.5 6L43 53.5c1.8 1.5 4.5 1.2 6-.6z"/></symbol><symbol viewBox="0 0 62 62" id="tree" xmlns="http://www.w3.org/2000/svg"><path d="M39.3 37.9c-2.2 1.8-5.4 4-8.1 7.2v-4.5c0-1.8 4.5-1.3 6.7-3.6.5.1 1 .5 1.4.9zm-10.8 1.4v5.8c-2.7-2.2-5.4-4.5-8.1-6.3.4-.9 1.3-2.2 2.3-2.2 1.3 0 4 2.2 5.8 2.7zm7.7-26.9c.9-.5 1.3-.5 2.7-.5 4 0 7.6 1.8 9 8.1 1.8.9 3.6.9 5.4 2.2 3.1 2.2 4 5.4 4 7.6 0 5.8-4 9.9-9.4 9.9-2.7 0-8.1-2.7-9-6.7-2.7 3.1-5.4 4-8.1 4-2.7 0-5.4-.9-8.1-4.5-1.8 2.7-5.8 5.4-8.5 5.4-5.4 0-9.4-4-9.4-9.4s4-9.4 9.4-9.4c.9 0 4.9-.4 4.9.5 0-.9-1.4-4-1.4-4.9 0-5.4 4-9.4 9-9.4 4.1-.1 7.7 1.7 9.5 7.1zm-1.8-6.7C32.1 3.9 28.1 3 27.2 3c-6.7 0-13.5 5.8-11.7 14.3-9-1.4-13 5.8-13 11.2 0 5.8 5.4 11.6 11.7 11.6.9 0 2.2-.9 3.1-.9 1.4 0 8.1 5.8 11.7 9.4V59h1.8v-9.9c0-3.1 9.4-9.4 10.8-9.4.5 0 5.4 1.8 6.3 1.8 5.8 0 11.7-4.9 11.7-11.2 0-2.2-1.4-6.7-3.6-8.5-2.2-1.8-4.9-2.2-6.3-3.6-.9-1.3-.9-3.1-1.8-4-3.6-4.5-7.6-4.5-10.3-4.9-1-.9-1.9-2.7-3.2-3.6z"/></symbol><symbol viewBox="0 0 60 60" id="triomphe" xmlns="http://www.w3.org/2000/svg"><path d="M58.1 5.1H2.4v4.4H58V5.1zm.4-1l.4-1c0-.2-.1-.3-.3-.3H1.7c0 .1-.1.2-.1.3l.4 1h56.5zM2.4 56.8c0 .2 0 .4.2.4h19.6c.2 0 .4-.2.4-.4v-24H2.4v24zm35.5 0c0 .2.3.4.4.4h19.6c.2 0 .1-.2.1-.4v-24H37.8l.1 24zM0 11l2.1 4h56.1l1.7-4H0zm2.4 20h20.2v-.2s-1.4-9.1 7.8-8.9c0 0 7.9-.6 7.5 8.9v.2H58V18.1H2.4V31z"/></symbol><symbol viewBox="0 0 30 20" id="tripadvisor" xmlns="http://www.w3.org/2000/svg"><path d="M23.7 4.7c-1.6-2.2-6.4-2.6-8.6-2.6-2.3 0-6.9.3-8.5 2.6H2c.3.4 1.2 1.7 1.2 2.3 0 .1-.6.9-.8 1.5-.3.6-.4 1.3-.5 1.8v1.6c0 .1.2.9.3 1.4 1.2 3.2 3.9 4.6 6.4 4.6 1.6 0 3.7-.7 5.2-2.4l1.6 2.1c.4-.7.9-1.5 1.4-2.2 1.4 1.7 3.5 2.5 5.2 2.5 3.6 0 6.7-2.9 6.7-6.7 0-.9-.2-1.8-.6-2.6-.2-.6-.9-1.6-.9-1.7 0-.1.4-1.1.7-1.6.1-.2.3-.4.4-.5h-4.6zm-1.8.1h-1.2c-.4 0-.7.2-1 .2-2.1.3-4.2 3.3-4.4 5.1-.1-.1-.2-.4-.2-.5-.2-1.5-2.4-4.4-4.2-4.6-.4 0-.8-.2-1-.2H8.7c2.1-1.7 4.5-1.9 6.6-1.9 2-.1 4.5.1 6.6 1.9zM14 11.1c0 3-2.6 5.5-5.5 5.5-2 0-4.6-1.4-5.2-3.9-.1-.3-.2-.8-.2-.9v-1.2c.4-3.2 3.1-4.8 5.4-4.8 3-.1 5.5 2.2 5.5 5.3zm13.3 0c0 3.1-2.7 5.5-5.5 5.5-1.9 0-4.6-1.3-5.2-3.7-.1-.4-.2-1-.2-1.1v-1.2c.4-3.2 3.1-4.8 5.4-4.8 3.1-.1 5.5 2.4 5.5 5.3zm-2.3 0c0-1.6-1.1-3.2-3.2-3.2-1.8 0-3.2 1.4-3.2 3.2 0 1.7 1.4 3.2 3.2 3.2 1.7 0 3.2-1.3 3.2-3.2zm-.9 0c0 1.4-1.2 2.3-2.3 2.3-1.3 0-2.2-1.1-2.2-2.3 0-1.4 1.1-2.2 2.2-2.2 1.4 0 2.3 1 2.3 2.2zm-1.2 0c0-.7-.5-1-1.1-1-.7 0-1 .5-1 1 0 .6.4 1.1 1 1.1s1.1-.5 1.1-1.1zm-11.2 0c0-1.6-1.1-3.2-3.2-3.2-1.8 0-3.2 1.4-3.2 3.2 0 1.7 1.4 3.2 3.2 3.2 1.7 0 3.2-1.3 3.2-3.2zm-.9 0c0 1.4-1.2 2.3-2.3 2.3-1.3 0-2.2-1.1-2.2-2.3 0-1.4 1.1-2.2 2.2-2.2 1.4 0 2.3 1 2.3 2.2zm-1.2 0c0-.7-.5-1-1.1-1-.7 0-1 .5-1 1 0 .6.4 1.1 1 1.1s1.1-.5 1.1-1.1z"/></symbol><symbol viewBox="0 0 50 38" id="trolley" xmlns="http://www.w3.org/2000/svg"><path d="M21.8 23.7L16.1 13h28.7l-6.3 10.7.1.3H21.7l.1-.3zm-6.6-12.3l-5-9.4H0v3h8.1l1.4.6L19.8 26l1 .7.5.3h18.2v-.3l1-.7L50 9h-2.9l-.6 1H15.2v1.4zm10.7 21.3c0-1.3-1.1-2.4-2.5-2.4s-2.5 1.1-2.5 2.4c0 1.4 1.1 2.5 2.5 2.5 1.4-.1 2.5-1.2 2.5-2.5zm11.6-2.4c-1.4 0-2.5 1.1-2.5 2.4 0 1.4 1.1 2.5 2.5 2.5s2.5-1.1 2.5-2.5-1.1-2.4-2.5-2.4z"/></symbol><symbol viewBox="0 0 20 20" id="twitter" xmlns="http://www.w3.org/2000/svg"><path d="M15 1.9c.4.2 1.5 1.1 1.9 1.1.3 0 .3 0 .4-.1.2-.1.5-.1.7-.2 0 0 1.1-.6 1.1-.3 0 .4-1.3 1.5-1.5 1.7.1.1 0 .2.3.2.2 0 .8-.1 1.5-.4 0 0 .1-.1.1.2 0 .2-1.4.8-1.6 1.7-.4.8-.1 1.9-.3 2.8-.2.9-.5 2-1 3 0 .1-.2.3-.3.4-1.1 2.7-5 5.6-7.5 5.9-.3 0-.5.2-.8.3-1.5 0-1.7.1-1.9.1-1.4 0-5.1-1-5.5-1.8 1.6.2 3.6-.5 5.4-1.6 0 0 0-.1.1-.2-1.4-.4-2.7-.8-3.6-2.3v-.5c.1 0 .2-.1.5-.1.1 0 0 .2.2.2.3 0 .5-.2.8-.4C2.4 11.2.8 9.4.8 8.1c0-.3 0-.4.2-.4.3 0 .8.4 1 .4.3 0 .4-.1.4-.1s.1 0 .1-.2C2.5 7.7.9 6 .9 5.5v-2c.1-.2.3-.5.5-.8C3.9 5.7 7 6.4 9.6 7c.1-.1.2-.3.2-.5V5.1c.7-2.6 2.2-3.4 4-3.4.2.1.8 0 1.2.2z"/></symbol><symbol viewBox="0 0 130 130" id="video-player" xmlns="http://www.w3.org/2000/svg"><g fill-rule="evenodd" clip-rule="evenodd"><path d="M65 3.2c31.4 0 62.6 20.6 62.6 61.8 0 41.2-31.2 61.8-62.6 61.8-31.4 0-62.6-20.6-62.6-61.8C2.4 23.8 33.6 3.2 65 3.2zm0-2C32.8 1.2.4 22.4.4 65c0 42.6 32.4 63.8 64.6 63.8 32.2 0 64.6-21.3 64.6-63.8 0-42.6-32.4-63.8-64.6-63.8z"/><path d="M43 38l60 30-60 30V38z"/></g></symbol><symbol viewBox="0 0 130 130" id="video-player-gray" xmlns="http://www.w3.org/2000/svg"><g fill-rule="evenodd" clip-rule="evenodd"><path fill="rgba(0,0,0,0.5)" d="M65 2C33.2 2 1.2 23 1.2 65s32 63 63.8 63c31.8 0 63.8-21 63.8-63S96.8 2 65 2z"/><path d="M65 3.2c31.4 0 62.6 20.6 62.6 61.8 0 41.2-31.2 61.8-62.6 61.8-31.4 0-62.6-20.6-62.6-61.8C2.4 23.8 33.6 3.2 65 3.2zm0-2C32.8 1.2.4 22.4.4 65c0 42.6 32.4 63.8 64.6 63.8 32.2 0 64.6-21.3 64.6-63.8 0-42.6-32.4-63.8-64.6-63.8z"/><path d="M43 38l60 30-60 30V38z"/></g></symbol><symbol viewBox="0 0 20 20" id="vines" xmlns="http://www.w3.org/2000/svg"><path d="M18.6 4.8c0 1.1-.2 2.4-.7 3.4-.2.1-.5.1-.7.1-.1 0-.6 0-.8-.1-.2-.1-1.3-.6-1.3-.9 0-.2.2-1 .3-1.4V4.3c0-.8-.5-1.3-1.2-1.3-1.4 0-1.4 1.7-1.4 2.4 0 2.7 1.5 4.8 4.5 4.8.2 0 .8 0 1.2-.1l.2.1v2.2c-.7.2-1.5.2-2.3.3-.1.1-.2.2-.2.4-.7 1.7-4.6 7.1-6.4 7.1-.6 0-1.3-.4-1.8-1-3.7-3.7-4.8-7.7-5.8-11.5-.4-1.6-.8-4.3-.8-4.4V3h3.3c.3 2.6.9 5.6 1.9 8.2.3.8.7 1.6 1.1 2.4.4.8 1.8 3.1 2.2 3.1.1 0 .6-.6.8-.9 1.1-1.3 1.9-2.7 2.6-4-1.7-.8-3.2-3.1-3.4-4.5 0-.3-.2-1.2-.2-1.3V4.5c.3-3 2.4-4.5 4.6-4.5 3.2 0 4.3 2.2 4.3 4.8z"/></symbol><symbol viewBox="0 0 80 80" id="visite-guidee" xmlns="http://www.w3.org/2000/svg"><path d="M73 23.2c-5.4 2.7-11.6 5.5-17.9 8.2v-16L73 23.2zm4 0L53.3 12.7V55c-4-1.7-8.1-2.6-8.1-2.6l-.7-.3v-3.5l.7-1.2c2.7-2.6 4.8-6.1 4.8-10.2 0-7.7-5.4-14-12.1-14-.5 0-1.1.1-1.5.1-.3.1-.5.1-.9.2h-.1c-.6.2-1.1.4-1.8.5-.2.1-.3.2-.4.3-.4.2-.9.4-1.2.6-2.7 1.7-4.7 4.5-5.7 8-.2-.4-.9 5.5.1 7.7.9 2.6 2.5 5 4.3 6.7l.6.9v4.2l-.6.1S15 55.9 15 62.2v5.1h45.8v-5.1c0-2.8-2.9-5-6.2-6.5V33.8L77 23.2zM37.9 50.1c-1.3 0-3.7-1.3-6-3.4v-.3h-.3C29.1 44 27 40.7 27 37.3c0-.8.9-1.7 1-2.4 2.2-.9 4.1-2.8 5-5.5 2.1 2.3 6.6 4 11.8 4 .9 0 1.7-.1 2.6-.2.4 1.3 1.4 2.7 1.4 4.1 0 3.4-2.1 6.7-4.6 9.1H44v.2c-2.2 2.2-4.7 3.5-6.1 3.5zm-4.8-.3c2.1 1.7 3.2 1.5 4.8 1.5s2.7-1.1 4.9-2.7v5.1s16.3 3.2 16.3 8.8v2.8H17.2l-.2.2v-3.2c.3-6.4 16.2-8.7 16.2-8.7l-.1-3.8z"/></symbol><symbol viewBox="0 0 43 43" id="webcam" xmlns="http://www.w3.org/2000/svg"><path d="M15.2 18.9c0 3.5 2.8 6.3 6.3 6.3s6.3-2.8 6.3-6.3-2.8-6.3-6.3-6.3-6.3 2.8-6.3 6.3zm4.5 16.2c-5.5.3-10 2.5-11.3 5.4h25.2c-1.3-2.8-5.5-4.9-10.7-5.3 8.4-.7 15-7.7 15-16.3 0-9-7.3-16.4-16.4-16.4-9 0-16.4 7.3-16.4 16.4 0 8.4 6.4 15.3 14.6 16.2zM7.5 18.9c0-7.2 6.8-14 14-14s14 6.8 14 14-6.8 14-14 14-14-6.8-14-14z"/></symbol><symbol viewBox="0 0 30 20" id="youtube" xmlns="http://www.w3.org/2000/svg"><path d="M27 4.5c-.1-.4-.2-.7-.3-1-.2-.7-1.1-1.6-1.7-1.7-.1 0-.3-.1-.4-.1-.5-.1-1.1-.1-1.5-.2-.4 0-.8 0-1.2-.1l-9.6-.1-4 .1c-1.8 0-4.9.1-5.3 2.9 0 .4-.1.8-.1 1.2-.1.7-.1 1.3-.2 2v5.1c0 .1.1 2.1.4 3.2.1.4.3 1.2.8 1.7.7.7 1.5.9 2.3 1 .5.1 1.2.1 1.8.2l10.6.1c.8-.1 1.6-.1 3.5-.1.7-.1 1.4-.2 2.1-.2 3.1-.3 2.8-3.8 3.1-5.5V7.1c0-.1-.2-1.8-.3-2.6zm-14.5 8.7v-7l6.6 3.5-6.6 3.5z"/></symbol></svg>